<svg viewBox="0 0 450 150" xmlns="http://www.w3.org/2000/svg" fill-rule="evenodd" clip-rule="evenodd" stroke-linejoin="round" stroke-miterlimit="1.414"><path d="M36.6 110.5h15.1v2H36.6v-2zm56.7 0h18.1v2H93.3v-2zM63.704 80.46l-1.415 1.413 9.475 9.475 1.414-1.414-9.476-9.475zm17.37 1.498l-9.476-9.475-.707.707 9.476 9.475.707-.707zm3.713-3.67l1.414-1.413-9.474-9.475-1.414 1.414 9.475 9.475zM96.5 46.5h18.7v2H96.5v-2zm-41 0v2H37.2v-2h18.3z" fill="#008e5a" fill-opacity=".1"/><path d="M37.2 48.5h-7.7v62h7.1v2h-9.1v-66h9.7v2zm14.5 62h41.6v2H51.7v-2zm69.8 2h-10.1v-2h8.1v-62h-4.3v-2h6.3v66zm-25-66v2h-41v-2h41z" fill="#008e5a" fill-opacity=".25"/><path d="M76 66.7l29-29c.3-.3.7-.4 1.1-.4 1.1 0 2.5.7 3.7 1.9l4.6 4.6c1.7 1.8 2.4 3.9 1.5 4.8L86.95 77.55l29.95 29.95-14.5 14.5-29.9-30-23.6 23.6-16.9 6 6-16.9 23.6-23.6L32 51.5l14.5-14.4L76 66.7zm5.15 16.65L73.9 90.6l4.3 4.3 3.6-3.6.7.7-3.6 3.6 4.3 4.3 3.6-3.6.7.7-3.6 3.6 4.3 4.3 3.6-3.6.7.7-3.6 3.6 4.3 4.3 3.6-3.6.7.7-3.6 3.6 4.3 4.3 3.6-3.6.7.7-3.6 3.6 3.5 3.5 7.3-7.2-28.55-28.55zM37 113.5c.8.1 1.4.5 2 1 .6.6.9 1.3 1.1 2.1l-4.8 1.7 1.7-4.8zm4 2.8c-.2-.9-.6-1.8-1.3-2.5-.7-.7-1.5-1.1-2.4-1.3l2.4-6.8.7-.7c.1.8.5 1.6 1.1 2.2.7.7 1.7 1.1 2.7 1.1.4 0 .7-.1 1-.2-.4 1.3-.1 2.7 1 3.7.7.7 1.5 1 2.4 1.1l-.8.8-6.8 2.6zm8.7-4.2c-.9.3-2 0-2.7-.7-1.1-1.1-1.1-2.9 0-4l49-49.2 3.7 3.7-50 50.2zM85.5 79l-3.65 3.65 28.55 28.55 3.7-3.7L85.5 79zm-44.1 25.1l50.2-50.2 3.6 3.6-49.1 49.1c-1.1 1.1-2.9 1.1-4 0-.5-.5-.8-1.2-.8-2 .1-.1.1-.3.1-.5zm28.8-31.6L42.1 44.3l-7.3 7.2 3.3 3.3 3.6-3.6.7.7-3.6 3.6 4.3 4.3 3.6-3.6.7.7-3.6 3.6 4.3 4.3 3.6-3.6.7.7-3.6 3.6 4.3 4.3 3.6-3.6.7.7-3.6 3.6 4.3 4.3 3.6-3.6.7.7-3.6 3.6 4.2 4.2 7.2-7.2zm4.4-4.4L46.5 39.9l-3.7 3.7 28.1 28.2 3.7-3.7zm17.8-14.9l6.3-6.3 8.1 8.1-6.3 6.3-8.1-8.1zm15 1.1l-8.1-8.1 6.9-6.9c.4.1 1.3.4 2.2 1.3l4.6 4.6c.9.9 1.3 1.8 1.3 2.2l-6.9 6.9zM216.017 97.136c-4.212-.216-8.285-.98-12.217-2.236-6.6 4.4-14 7.2-21.9 8.3l-1.7.3.7-1.6c2.6-6 4.1-12.3 4.3-18.9-5-5.8-7.7-12.7-7.7-20 0-18.9 18.4-34.2 41-34.2s41 15.4 41 34.2c0 3.86-.768 7.57-2.182 11.032C265.683 78.144 270.9 85.696 270.9 93.9c0 4.8-1.8 9.5-5.1 13.4.2 4.3 1.1 8.4 2.8 12.3l.7 1.7-1.8-.3c-5.2-.7-10.1-2.6-14.5-5.5-3.1 1-6.4 1.5-9.7 1.5-13.862 0-25.438-8.482-27.283-19.864zm40.496-21.304C250.42 88.367 235.673 97.2 218.5 97.2c-.144 0-.29 0-.433-.002C219.955 107.444 230.647 115 243.3 115c3.3 0 6.5-.5 9.5-1.5l.5-.2.4.3c3.8 2.5 7.9 4.3 12.3 5.1-1.4-3.7-2.2-7.7-2.3-11.7v-.4l.3-.3c3.2-3.6 4.9-7.9 4.9-12.4 0-7.41-4.723-14.265-12.387-18.068zM218.6 30.8c-21.5 0-39 14.5-39 32.2 0 6.9 2.6 13.4 7.5 19l.3.3v.4c-.2 6.4-1.5 12.5-3.8 18.3 7.1-1.2 13.7-3.9 19.7-8l.4-.3.3.3c4.6 1.5 9.5 2.3 14.5 2.3 21.5 0 39-14.5 39-32.2 0-17.7-17.4-32.3-38.9-32.3zm0 36.9c-2.6 0-4.7-2.1-4.7-4.7s2.1-4.7 4.7-4.7 4.7 2.1 4.7 4.7-2.1 4.7-4.7 4.7zm-18.5 0c-2.6 0-4.7-2.1-4.7-4.7s2.1-4.7 4.7-4.7 4.7 2.1 4.7 4.7-2.1 4.7-4.7 4.7zm36.9 0c-2.6 0-4.7-2.1-4.7-4.7s2.1-4.7 4.7-4.7 4.7 2.1 4.7 4.7-2.1 4.7-4.7 4.7zm-18.4-7.3c-1.5 0-2.7 1.2-2.7 2.7 0 1.5 1.2 2.7 2.7 2.7 1.5 0 2.7-1.2 2.7-2.7 0-1.5-1.3-2.7-2.7-2.7zm-18.5 0c-1.5 0-2.7 1.2-2.7 2.7 0 1.5 1.2 2.7 2.7 2.7 1.5 0 2.7-1.2 2.7-2.7 0-1.5-1.2-2.7-2.7-2.7zm36.9 0c-1.5 0-2.7 1.2-2.7 2.7 0 1.5 1.2 2.7 2.7 2.7 1.5 0 2.7-1.2 2.7-2.7 0-1.5-1.2-2.7-2.7-2.7z" fill="#008e5a"/><path d="M215.8 96.4c-.1-.8-.1-1.6-.1-2.4 0-12.7 12.4-23 27.6-23 4.6 0 9.1 1 13.1 2.8l-.8 1.8c-3.7-1.7-8-2.6-12.2-2.6-14.1 0-25.6 9.4-25.6 21 0 .7 0 1.4.1 2.1l-2.1.3z" fill="#008e5a" fill-opacity=".1" fill-rule="nonzero"/><path d="M417.3 34.3v82.2h-77.6c-3.9 0-7-3.1-7-7V41.3c0-3.9 3.1-7 7-7h77.6zm-2 60.1V36.3h-75.6c-2.8 0-5 2.2-5 5v68.1c0 2.8 2.2 5 5 5h75.5v-2h-74.9c-2 0-3.6-1.6-3.6-3.6V98c0-2 1.6-3.6 3.6-3.6h75zm-.1 16v-14h-74.9c-.9 0-1.6.7-1.6 1.6v10.8c0 .9.7 1.6 1.6 1.6h74.9zm-13-61.1v12.1h-50.5V49.3h50.5zm-.9 11.1V50.3h-48.6v10.1h48.6z" fill="#008e5a"/><path d="M412.7 107.9h-71.5v-13h71.5v13zm-70.5-1h69.5v-11h-69.5v11zM375 72.8v1h-23.3v-1H375zm-23.3-4h46v1h-46v-1z" fill="#008e5a" fill-opacity=".5"/></svg>