<svg viewBox="0 0 450 150" xmlns="http://www.w3.org/2000/svg" fill-rule="evenodd" clip-rule="evenodd" stroke-linejoin="round" stroke-miterlimit="1.414"><path d="M65 66.7l-.2-2c2.3-.2 4.4-1.4 6-3.1l1.5 1.3c-1.9 2.1-4.5 3.5-7.3 3.8z" fill="#49589b" fill-opacity=".1" fill-rule="nonzero"/><path d="M64.9 78.4l-.1-2c5.9-.3 11.4-3.1 15.2-7.7l1.6 1.3c-4.2 4.9-10.2 8-16.7 8.4z" fill="#49589b" fill-opacity=".05" fill-rule="nonzero"/><path d="M63.8 78.4C51.2 78.4 41 68.1 41 55.6 41 43 51.2 32.8 63.8 32.8c12.6 0 22.8 10.2 22.8 22.8 0 5.2-1.8 10.3-5.1 14.3L80 68.6c3-3.7 4.6-8.3 4.6-13.1 0-11.5-9.3-20.8-20.8-20.8S43 44.1 43 55.6c0 11.5 9.3 20.8 20.8 20.8h1l.1 2h-1.1z" fill="#49589b" fill-opacity=".25" fill-rule="nonzero"/><path d="M63.8 66.7c-6.2 0-11.2-5-11.2-11.2 0-6.2 5-11.2 11.2-11.2 6.2 0 11.2 5 11.2 11.2 0 2.7-1 5.3-2.7 7.3l-1.5-1.3c1.4-1.7 2.2-3.8 2.2-6 0-5.1-4.1-9.2-9.2-9.2s-9.2 4.1-9.2 9.2 4.1 9.2 9.2 9.2c.3 0 .7 0 1-.1l.2 2c-.4.1-.8.1-1.2.1z" fill="#49589b" fill-opacity=".75" fill-rule="nonzero"/><path d="M65.8 59.5l37 27.2-13 2.5-2.6.5 1.2 2.4 9.6 18.8-9.5 4.8-9.6-18.9-1.2-2.4-1.9 1.8-9.8 9.1V59.5m-2.2-3.9v54.3L77 97.6l10.6 20.7 13.1-6.6-10.6-20.5 17.6-3.3-43.9-32.3z" fill="#49589b" fill-rule="nonzero"/><path d="M204.393 94.92l-1.415-1.413-11.95 11.95 1.415 1.414 11.95-11.95zm54.23 10.52l-11.95-11.95-1.414 1.413 11.95 11.95 1.413-1.414zM176.9 71.7h18v2h-18v-2zm78 0h18v2h-18v-2zm-50.598-20.55l-11.95-11.95-1.414 1.414 11.95 11.95 1.414-1.414zm54.38-10.553l-1.414-1.414-11.95 11.95 1.414 1.414 11.95-11.95zM223.9 24.7h2v18h-2v-18z" fill="#0077af" fill-opacity=".75"/><path d="M216.9 119.4h16l-4.2 5.7h-7.5l-4.3-5.7zm10.7 3.7l1.3-1.7h-8.1l1.3 1.7h5.5zm3-12.6c1.9 0 3.4 1.5 3.4 3.4s-1.5 3.4-3.4 3.4h-11.4c-1.9 0-3.4-1.5-3.4-3.4s1.5-3.4 3.4-3.4h11.4zm0 4.8c.8 0 1.4-.6 1.4-1.4 0-.8-.6-1.4-1.4-1.4h-11.4c-.8 0-1.4.6-1.4 1.4 0 .8.6 1.4 1.4 1.4h11.4zm0-13.6c1.9 0 3.4 1.5 3.4 3.4s-1.5 3.4-3.4 3.4h-11.4c-1.9 0-3.4-1.5-3.4-3.4s1.5-3.4 3.4-3.4h11.4zm0 2h-11.4c-.8 0-1.4.6-1.4 1.4 0 .8.6 1.4 1.4 1.4h11.4c.8 0 1.4-.6 1.4-1.4 0-.8-.6-1.4-1.4-1.4zm1.7-4H217l-9.6-15.2c-2.3-3-3.5-6.9-3.5-11.4 0-11.5 9.5-20.9 21.1-20.9 11.5 0 20.9 9.4 20.9 21 0 3-.6 6-1.6 8.1l-.3.6h-7.6c-3.1 0-4.7-1.8-5.1-3.8-1.5 1.9-3.8 3.1-6.4 3.1-4.5 0-8.1-3.6-8.1-8.1s3.6-8.1 8.1-8.1c2.5 0 4.7 1.1 6.2 2.9v-3h2V77c0 .9.3 2.9 3.2 2.9h6.5c.8-1.8 1.2-4.3 1.2-6.7 0-10.5-8.5-19-19-19s-19.1 8.5-19.1 18.9c0 3.1.6 5.8 1.8 8.1l1.4 2.3c3.2 4 8.6 6.2 15.7 6.2h10l2.6 4.2-5.1 5.8zm-7.5-8c-4.8 0-8.9-1-12.3-2.8l5.6 8.8h13.3l3.5-4-1.2-2h-8.9zm0-12.6c-3.4 0-6.1-2.7-6.1-6.1 0-3.4 2.7-6.1 6.1-6.1 3.4 0 6.1 2.7 6.1 6.1 0 3.4-2.7 6.1-6.1 6.1z" fill="#0077af"/><path d="M190.8 83.9c-1.9 0-3.5 1.6-3.5 3.5s1.6 3.5 3.5 3.5 3.5-1.6 3.5-3.5c0-2-1.6-3.5-3.5-3.5zm68.2-.5c-1.9 0-3.5 1.6-3.5 3.5s1.6 3.5 3.5 3.5 3.5-1.6 3.5-3.5-1.6-3.5-3.5-3.5zm-68.2 2.5c.8 0 1.5.7 1.5 1.5s-.7 1.5-1.5 1.5-1.5-.7-1.5-1.5c0-.9.7-1.5 1.5-1.5zm68.2-.5c.8 0 1.5.7 1.5 1.5s-.7 1.5-1.5 1.5-1.5-.7-1.5-1.5.7-1.5 1.5-1.5zm-68.4-29.8c-1.9 0-3.5 1.6-3.5 3.5s1.6 3.5 3.5 3.5 3.5-1.6 3.5-3.5-1.5-3.5-3.5-3.5zm68.2-.4c-1.9 0-3.5 1.6-3.5 3.5s1.6 3.5 3.5 3.5 3.5-1.6 3.5-3.5-1.5-3.5-3.5-3.5zm-68.2 2.4c.8 0 1.5.7 1.5 1.5s-.7 1.5-1.5 1.5-1.5-.7-1.5-1.5.7-1.5 1.5-1.5zm68.2-.4c.8 0 1.5.7 1.5 1.5s-.7 1.5-1.5 1.5-1.5-.7-1.5-1.5.7-1.5 1.5-1.5zm-48.3-21.7c-1.9 0-3.5 1.6-3.5 3.5s1.6 3.5 3.5 3.5S214 41 214 39c0-1.9-1.6-3.5-3.5-3.5zm28.2-.2c-1.9 0-3.5 1.6-3.5 3.5s1.6 3.5 3.5 3.5 3.5-1.6 3.5-3.5-1.5-3.5-3.5-3.5zm-28.2 2.2c.8 0 1.5.7 1.5 1.5s-.7 1.5-1.5 1.5-1.5-.7-1.5-1.5.7-1.5 1.5-1.5zm28.2-.2c.8 0 1.5.7 1.5 1.5s-.7 1.5-1.5 1.5-1.5-.7-1.5-1.5.7-1.5 1.5-1.5z" fill="#0077af" fill-opacity=".25"/><path d="M408.73 102.284l-11.95-11.95-1.414 1.414 11.95 11.95 1.414-1.414zm-54.306-10.59l-1.415-1.413-11.95 11.95 1.414 1.415 11.95-11.95zM327 68.5h18v2h-18v-2zm78 0h18v2h-18v-2zm-50.665-20.576l-11.95-11.95-1.414 1.414 11.95 11.95 1.415-1.414zm54.378-10.553l-1.414-1.413-11.95 11.95 1.413 1.414 11.95-11.95zM374 21.5h2v18h-2v-18z" fill="#0077af" fill-opacity=".75"/><path d="M340.9 87.5c-1.3 0-2.5-.8-3-2-.7-1.7.1-3.6 1.7-4.3 1.7-.7 3.6.1 4.3 1.7.7 1.7-.1 3.6-1.7 4.3-.5.2-.9.3-1.3.3zM409 87c-.4 0-.8-.1-1.2-.2-.8-.3-1.4-1-1.8-1.8-.4-.8-.3-1.7 0-2.5s1-1.4 1.8-1.8c.8-.3 1.7-.3 2.5 0s1.4 1 1.8 1.8c.4.8.3 1.7 0 2.5s-1 1.4-1.8 1.8c-.4.1-.8.2-1.3.2zm-68.6-4c-.6.3-1 1-.7 1.7.3.6 1 1 1.7.7.6-.3 1-1 .7-1.7-.3-.7-1.1-1-1.7-.7zm68.6-.5c-.2 0-.3 0-.5.1-.3.1-.6.4-.7.7-.1.3-.1.7 0 1 .1.3.4.6.7.7.3.1.7.1 1 0 .3-.1.6-.4.7-.7.1-.3.1-.7 0-1-.1-.3-.4-.6-.7-.7-.1-.1-.3-.1-.5-.1zm-68.3-23.3c-.4 0-.8-.1-1.2-.2-.8-.3-1.4-1-1.8-1.8-.3-.8-.3-1.7 0-2.5s1-1.4 1.8-1.8c.8-.3 1.7-.3 2.5 0s1.4 1 1.8 1.8c.3.8.3 1.7 0 2.5s-1 1.4-1.8 1.8c-.5.1-.9.2-1.3.2zm68.2-.4c-.4 0-.8-.1-1.2-.2-.8-.3-1.4-1-1.8-1.8-.4-.8-.3-1.7 0-2.5s1-1.4 1.8-1.8c.8-.3 1.7-.3 2.5 0s1.4 1 1.8 1.8c.3.8.3 1.7 0 2.5s-1 1.4-1.8 1.8c-.5.1-.9.2-1.3.2zm-68.2-4.1c-.2 0-.3 0-.5.1-.3.1-.6.4-.7.7-.1.3-.1.7 0 1 .1.3.4.6.7.7.3.1.7.1 1 0 .3-.1.6-.4.7-.7.1-.3.1-.7 0-1-.1-.3-.4-.6-.7-.7-.2-.1-.4-.1-.5-.1zm68.2-.5c-.2 0-.3 0-.5.1-.3.1-.6.4-.7.7-.1.3-.1.7 0 1 .1.3.4.6.7.7.3.1.7.1 1 0 .3-.1.6-.4.7-.7.1-.3.1-.7 0-1-.1-.3-.4-.6-.7-.7-.2 0-.4-.1-.5-.1zm-48.4-15.1c-.4 0-.8-.1-1.2-.2-.8-.3-1.4-1-1.8-1.8-.3-.8-.3-1.7 0-2.5s1-1.4 1.8-1.8c.8-.4 1.7-.3 2.5 0s1.4 1 1.8 1.8c.3.8.3 1.7 0 2.5s-1 1.4-1.8 1.8c-.4.1-.8.2-1.3.2zm28.3-.2c-.4 0-.8-.1-1.2-.2-1.7-.7-2.5-2.6-1.8-4.3.7-1.7 2.6-2.5 4.3-1.8 1.7.7 2.5 2.6 1.8 4.3-.6 1.3-1.8 2-3.1 2zm-28.3-4.3c-.2 0-.3 0-.5.1-.3.1-.6.4-.7.7-.1.3-.1.7 0 1 .3.6 1 1 1.7.7.3-.1.6-.4.7-.7.1-.3.1-.7 0-1-.2-.5-.7-.8-1.2-.8zm28.3-.2c-.5 0-1 .3-1.2.8-.3.7 0 1.4.7 1.7.7.3 1.4 0 1.7-.7.3-.7 0-1.4-.7-1.7-.2-.1-.4-.1-.5-.1z" fill="#0077af" fill-opacity=".25"/><path d="M366.9 116.2h16l-4.2 5.7h-7.5l-4.3-5.7zm10.7 3.7l1.3-1.7h-8.1l1.3 1.7h5.5zm3-12.5c1.9 0 3.4 1.5 3.4 3.4s-1.5 3.4-3.4 3.4h-11.4c-1.9 0-3.4-1.5-3.4-3.4s1.5-3.4 3.4-3.4h11.4zm0 2h-11.4c-.8 0-1.4.6-1.4 1.4 0 .8.6 1.4 1.4 1.4h11.4c.8 0 1.4-.6 1.4-1.4 0-.8-.6-1.4-1.4-1.4zm0-10.9c1.9 0 3.4 1.5 3.4 3.4s-1.5 3.4-3.4 3.4h-11.4c-1.9 0-3.4-1.5-3.4-3.4s1.5-3.4 3.4-3.4h11.4zm0 4.8c.8 0 1.4-.6 1.4-1.4 0-.8-.6-1.4-1.4-1.4h-11.4c-.8 0-1.4.6-1.4 1.4 0 .8.6 1.4 1.4 1.4h11.4zm-23.92-22.936C354.892 77.272 354 73.686 354 70.1c0-11.6 9.4-21 21-21s21 9.4 21 21c0 3.585-.992 7.17-2.68 10.26l.08.04-10.7 16.5h-15.3l-10.7-16.5-.02-.036zM377 94.9v-16l-2 1.3-2-1.3v16h4zm4.6 0l10-15.6c1.5-2.8 2.4-6 2.4-9.3 0-10.5-8.5-19-19-19s-19 8.5-19 19c0 3.3.8 6.5 2.4 9.3l10 15.6h2.6V75.1l4 2.7 4-2.7v19.8h2.6zm11.72-14.54l-.32-.16.3.2.02-.04z" fill="#0077af"/></svg>