<svg viewBox="0 0 450 150" xmlns="http://www.w3.org/2000/svg" fill-rule="evenodd" clip-rule="evenodd" stroke-linejoin="round" stroke-miterlimit="1.414"><path d="M113.3 36.7c2.9 0 5.2 2.4 5.2 5.2v51.2c0 2.9-2.4 5.2-5.2 5.2H79v4h42v4h3.7l2.8 7h-105l2.8-7H29v-4h42v-4H36.6c-2.9 0-5.2-2.4-5.2-5.2V41.9c0-2.9 2.4-5.2 5.2-5.2h76.7zm11.3 74.6l-1.2-3H26.6l-1.2 3h99.2zm-5.7-5v-2h-6.5v2h6.5zm-73.4 0v-2h-7v2h7zm7 0v-2h-6v2h6zm44 0v-2h-43v2h43zm6.9 0v-2h-6v2h6zm8 0v-2h-7v2h7zm-73.9 0v-2H31v2h6.5zm39.4-4v-4h-4v4h4zm36.4-6c1.8 0 3.2-1.5 3.2-3.2V41.9c0-1.8-1.5-3.2-3.2-3.2H36.6c-1.8 0-3.2 1.5-3.2 3.2v51.2c0 1.7 1.4 3.2 3.2 3.2h76.7zM70.7 43.7H38.4v42.6h73v-1.9l2 2v1.9h-77V41.7h32.3l2 2zM50.4 83.2h28.3v1H50.4v-1zm-4-4h9.8v1h-9.8v-1zm-4-4H65v1H42.4v-1zm0-8h4v1h-4v-1zm4-4h8.1v1h-8.1v-1zm0-4H76v1H46.4v-1zm44.8-3H46.4v-1h44.8v1zm-44.8-5h24v1h-24v-1zm-4-4h16.3v1H42.4v-1z" fill="#0077af"/><path d="M117.53 89.776L65.06 37.31l-.707.707 52.467 52.466.707-.707z" fill="#0077af" fill-opacity=".25"/><path d="M113.4 86.4l-2-2V43.7H70.7l-2-2h44.7v44.7z" fill="#0077af" fill-opacity=".5" fill-rule="nonzero"/><path d="M262 53.8c-3.7-6.1-8.8-11.2-14.9-14.9l1-1.7c6.4 3.8 11.8 9.2 15.6 15.6l-1.7 1z" fill="#0077af" fill-opacity=".1" fill-rule="nonzero"/><path d="M263.7 52.8l-1.7 1c4 6.7 6.1 14.3 6.1 22.2 0 8.8-2.7 17-7.2 23.9l1.7 1.1c4.8-7.2 7.6-15.8 7.6-25-.1-8.2-2.3-16.2-6.5-23.2zm-38.7-20c7.8 0 15.5 2.1 22.2 6.1l1-1.7c-7-4.2-15-6.4-23.2-6.4-6.5 0-12.8 1.4-18.4 3.9l.8 1.8c5.4-2.3 11.3-3.7 17.6-3.7z" fill="#0077af" fill-opacity=".25"/><path d="M262.9 100.6l-1.7-1.1c3-4.6 5-9.6 6.1-15-2.7.7-5 2.9-5.6 5.7l-.2 1-1-.3c-6-1.7-12.4.6-15.9 5.5l-.9 1.3-.8-1.4c-2.3-4.2-6.6-6.7-11.3-6.7-1.6 0-3.2.3-4.8.9l-1.8.8.3-1.8c.1-.3.1-.6.1-.8 0-1.7-1-3.3-2.5-4l.8-1.8c2.1 1 3.5 3 3.7 5.4 1.3-.4 2.7-.6 4.1-.6 5 0 9.6 2.5 12.3 6.5 3.9-4.6 10.2-6.7 16.2-5.4 1.3-3.6 4.6-6.2 8.5-6.5l1.3-.1-.2 1.3c-1.1 6.1-3.3 11.9-6.7 17.1zm-47.4-21.4l-2-.3c.1-.7.2-1.3.2-2 0-6.7-5.5-12.1-12.1-12.1h-1.3l.2-1.2c.2-1 .4-2 .4-2.9 0-1.6-.3-3.2-.9-4.7l1.9-.8c.7 1.7 1.1 3.6 1.1 5.5 0 .7-.1 1.4-.2 2.2 7.3.6 13 6.7 13 14.1-.1.7-.1 1.5-.3 2.2z" fill="#0077af" fill-opacity=".5"/><path d="M231.57 62.33l1.13-2.93c.8-2.1 2.8-3.7 5-4.1l-.5-.5.1-.3-10.3.9 4.5-9.3L243 44l2.5-4.6c3.3-6.2 10.2-9.6 17.2-8.4l6.1 1.1 1.1 6.1c1.2 6.9-2.2 13.9-8.6 17l-4.6 2.5-2.1 11.5-9.3 4.5.9-10.3-.3.1-.5-.5c-.4 2.2-1.9 4.2-4.1 5l-2.526.974.026.026-10.4 10.5c-3.814 3.432-6.536 7.773-7.735 12.677 7.082 2.82 13.098 8.004 16.835 14.823 3.6-2.2 7.8-3 11.9-2.1.7-2.4 2.4-4.4 4.8-5.6 2.7-1.4 5.7-1.4 8.4-.1l1 .5s-2.3 3.3-3.1 4.4c-7.2 9.1-17.9 15.2-29.4 16.7-2.1.3-4.1.4-6.1.4-8.8 0-17.5-2.6-24.9-7.5-8.7-5.8-15.2-14.4-18.3-24.3-3.3-10.6-2.5-22.4 2.2-32.5 4.7-10 13.1-18.2 23.2-22.5l.8-.3.4.8c1.7 3 2 6.5.6 9.8-1.2 3-3.6 5.2-6.6 6.2.1 5.4-2.6 10.5-7.1 13.4 4.718 4.193 7.298 10.37 7.142 16.6h.158c7.2 0 14-3.1 18.8-8.4l10.17-10.17zM208 91.7h-1.1v-1.1c.1-1.5-.6-2.9-1.7-3.9s-2.6-1.5-4-1.2l-1.4.2.3-1.4c1.5-7.3-1.3-14.9-7.1-19.5l-1.2-1 1.4-.7c4.7-2.5 7.6-7.7 7.3-13l-.1-.8.8-.2c2.7-.7 4.9-2.6 6-5.3 1.1-2.3 1-4.9 0-7.2-9.3 4.2-17 11.9-21.4 21.1-4.5 9.6-5.2 20.9-2.1 31 2.9 9.5 9.1 17.8 17.5 23.3 8.7 5.7 19.2 8.1 29.6 6.8 11-1.5 21.2-7.3 28.1-16 .5-.6 1.2-1.6 1.7-2.3-1.8-.5-3.7-.4-5.5.5-2.1 1.1-3.6 3-4 5.2l-.2 1.1-1.1-.3c-4.2-1.2-8.6-.4-12.1 2.2l-1 .7-.5-1.1c-5.3-10.5-16.4-17.2-28.2-17.1zm26.3-21l-5.415 2.09L211.7 89.973c2.415.25 4.774.758 7.04 1.504 1.32-5.197 4.13-9.91 8.26-13.478l7.3-7.3zm-4.466-3.868L222.8 73.8c-5.1 5.8-12.5 9.1-20.2 9.1h-.304c-.028.234-.06.467-.096.7 1.6.1 3.1.7 4.3 1.8 1.3 1.2 2.1 2.7 2.3 4.4.534.01 1.065.03 1.595.065l17.182-17.182 2.257-5.85zM254.6 59.1L253 68l-5.2 2.5.7-8.1 6.1-3.3zm-15.544-1.9c-1.883.02-3.56 1.214-4.256 3L231 70l9.7-3.7c1.8-.7 3-2.5 3.1-4.3 0-.088-.02-.156-.04-.222l-.02-.056c-.02-.066-.04-.135-.04-.222-.3.4-.7.7-1.2.9l-6.1 2.3 2.3-6.1c.2-.5.6-1 1-1.3-.2-.1-.4-.1-.6-.1h-.044zm1.444.8l2.5 2.5c-.2.4-.5.7-1 .9l-4 1.5 1.5-4c.3-.4.6-.7 1-.9zm20-4.4l-14 7.4-.1.1-6.6-6.6 5.8-10.9 1.7-3.2c2.9-5.5 9-8.5 15.1-7.4l4.7.8.8 4.7c1.1 6.1-1.9 12.2-7.4 15.1zm-30-.4L233 48l8.9-1.6-3.3 6.2-8.1.6zm29.8-16.9c-1.8 0-3.4 1.1-4.1 2.8l-3.5 9.2 9.2-3.5c1.7-.6 2.8-2.3 2.8-4.1-.1-2.4-2-4.4-4.4-4.4zm-3.7 4.4c1.6.7 2.8 2 3.6 3.6l-5.8 2.2 2.2-5.8zm4.9 3.1l-.3.1c-.8-1.8-2.3-3.3-4.2-4.2l.1-.3c.5-1.3 1.8-2.2 3.1-2.2 1.9 0 3.4 1.5 3.4 3.4 0 1.5-.9 2.7-2.1 3.2zM402.4 107.2l-.7 4.7-4.7-.7-1.5 4.5-4.5-1.5-2.1 4.2-4.2-2.1-2.8 3.8-3.8-2.8-3.3 3.5-3.3-3.3-3.8 2.8-2.8-3.8-4.2 2.1-2.1-4.2-4.5 1.5-1.5-4.5-4.7.7-.7-4.7h-4.7v-4.7l-4.7-.7.7-4.7-4.5-1.5 1.5-4.5-4.2-2.1 2.1-4.2-3.8-2.8 2.8-3.8L329 75l3.3-3.3-2.8-3.8 3.8-2.8-2.1-4.2 4.2-2.1-1.4-4.6 4.5-1.5-.7-4.7 4.7-.7v-4.7h4.7l.7-4.7 4.7.7 1.5-4.5 4.5 1.5 2.1-4.2 4.2 2.1 2.8-3.8 3.8 2.8 3.3-3.3 3.3 3.3 3.8-2.8 2.8 3.8 4.2-2.1 2.1 4.2 4.5-1.5 1.5 4.5 4.7-.7.7 4.7h4.7v4.7l4.7.7-.7 4.7 4.5 1.5-1.5 4.5 4.2 2.1-2.1 4.2 3.8 2.8-2.8 3.8 3.3 3.3-3.3 3.3L420 82l-3.8 2.8 2.1 4.2-4.2 2.1 1.5 4.5-4.5 1.5.7 4.7-4.7.7v4.7h-4.7zm-53.6-1.8l.7 4.4 4.4-.7 1.4 4.2 4.2-1.4 2 4 4-2 2.6 3.6 3.6-2.6 3.1 3.1 3.1-3.1 3.6 2.6 2.6-3.6 4 2 2-4 4.2 1.4 1.4-4.2 4.4.7.7-4.4h4.4V101l4.4-.7-.7-4.4 4.2-1.4-1.4-4.2 4-2-2-4 3.6-2.6-2.6-3.6 3.1-3.1-3.1-3.1 2.6-3.6-3.6-2.6 2-4-4-2 1.4-4.2-4.2-1.4.7-4.4-4.4-.7v-4.4h-4.4l-.7-4.4-4.4.7-1.4-4.2-4.2 1.4-2-4-4 2-2.6-3.6-3.5 2.6-3.2-3.1-3.1 3.1-3.6-2.6-2.6 3.6-4-2-2 4-4.2-1.4-1.4 4.2-4.4-.7-.7 4.4h-4.4V49l-4.4.7.7 4.4-4.2 1.4 1.4 4.2-4 2 2 4-3.6 2.6 2.6 3.6-3.1 3.1 3.1 3.1-2.6 3.6 3.6 2.6-2 4 4 2-1.4 4.2 4.2 1.4-.7 4.4 4.4.7v4.4h4.4zm26 6.6c-20.4 0-37-16.6-37-37s16.6-37 37-37 37 16.6 37 37-16.5 37-37 37zm0-73c-19.9 0-36 16.2-36 36s16.2 36 36 36 36-16.2 36-36-16.1-36-36-36zm8.3 50h-12.7c-2.2 0-4-1.8-4-4V70.1c0-1.1.4-2.1 1.2-2.8l8.9-8.9c.9-.9 2.3-.9 3.2-.1 1.4 1.2 2 3.1 1.5 4.9l-1.1 4.4h7.1c2.7 0 5 2.2 5 5v3.6c0 .8-.2 1.6-.6 2.3l-4.2 7.8c-.8 1.7-2.5 2.7-4.3 2.7zm-17.7 0h-8V69.1h8V89zm12.7-29.3c-.1 0-.2 0-.3.1l-8.8 8.9c-.4.4-.6.9-.6 1.4V85c0 1.1.9 2 2 2h12.7c1.1 0 2.1-.6 2.6-1.6l4.2-7.8c.2-.4.4-.9.4-1.4v-3.6c0-1.6-1.3-3-3-3h-9.7l1.7-6.9c.3-1.1-.1-2.2-.9-2.9-.1-.1-.2-.1-.3-.1zM359.5 87h4V71.1h-4V87z" fill="#0077af"/><path d="M374.8 107.4c-17.8 0-32.4-14.5-32.4-32.4s14.6-32.4 32.4-32.4c17.8 0 32.4 14.5 32.4 32.4s-14.5 32.4-32.4 32.4zm0-62.8c-16.8 0-30.4 13.7-30.4 30.4s13.7 30.4 30.4 30.4 30.4-13.7 30.4-30.4-13.6-30.4-30.4-30.4z" fill="#0077af" fill-opacity=".25" fill-rule="nonzero"/></svg>