<svg viewBox="0 0 450 150" xmlns="http://www.w3.org/2000/svg" fill-rule="evenodd" clip-rule="evenodd" stroke-linejoin="round" stroke-miterlimit="1.414"><path d="M101.2 38.7v74h-2v-74h2zm-2-2v2h-51v-2h51z" fill="#d96b28" fill-opacity=".1"/><path d="M99.2 121.7H39.1v-83h9.1v-2H37.1v87h64.1v-11.1h-2v9.1z" fill="#d96b28" fill-opacity=".25" fill-rule="nonzero"/><path d="M111.1 38v75.7h-64v-87h52.7L111.1 38zM99 39V28.7H49.2v83h60.1V39H99zM59.1 96.7h40v2h-40v-2zm0-8h40v2h-40v-2zm0-8h40v2h-40v-2zm0-8h40v2h-40v-2zm40-30v24h-40v-24h40zm-3 22l-17-9.5-17 9.5h34zm-16-10.1l17-9.4v18.9l-17-9.5zm-2 0l-17 9.4V45.2l17 9.4zm-15.8-9.9H96L79.1 54l-16.8-9.3zm45.1-7.7l-6.4-6.4V37h6.4z" fill="#d96b28"/><path d="M225 117.3l-6.3-6.3 1.4-1.4 4.9 4.8 4.9-4.8 1.4 1.4-6.3 6.3zm-9.896-70.162l-1.414-1.414-15.627 15.627 1.414 1.415 15.627-15.627zm21.2-1.43l-1.416 1.415 15.627 15.627 1.415-1.414-15.627-15.627z" fill="#d96b28" fill-opacity=".1"/><path d="M218.7 111l-35.1-35.2 14.5-14.5 1.4 1.4-13.1 13.1 33.7 33.8-1.4 1.4zm12.6 0l-1.4-1.4 33.7-33.8-13.1-13.1 1.4-1.4 14.5 14.5-35.1 35.2zm-16.2-63.9l-1.4-1.4L225 34.4l11.3 11.3-1.4 1.4-9.9-9.8-9.9 9.8z" fill="#d96b28" fill-opacity=".25"/><path d="M231.6 122.1h-13.2V92.4c0-1.8-1-3.4-2.5-4.3l-8.8-4.9c-5.7-3.2-9.3-9.2-9.3-15.8V52.1L187.2 56l17.2-27.4L221.6 56 211 52.1v15.3c0 1.8 1 3.4 2.5 4.3l8.8 4.9c.9.5 1.8 1.1 2.7 1.9.9-.7 1.8-1.3 2.7-1.9l8.8-4.9c1.5-.9 2.5-2.5 2.5-4.3V52.1L228.4 56l17.2-27.4L262.7 56l-10.6-3.9v15.3c0 6.5-3.5 12.6-9.3 15.8l-8.8 4.9c-1.5.9-2.5 2.5-2.5 4.3v29.7h.1zm-11.2-2h9.2V92.4c0-2.5 1.4-4.8 3.5-6l8.8-4.9c5.1-2.8 8.2-8.2 8.2-14V49.2l7.8 2.8-12.3-19.6-12.4 19.7 7.8-2.8v18.2c0 2.5-1.4 4.8-3.5 6l-8.8 4.9c-1 .6-2 1.3-3 2.2l-.7.6-.7-.6c-1-.9-2-1.6-3-2.2l-8.8-4.9c-2.2-1.2-3.5-3.5-3.5-6V49.2l7.8 2.8-12.4-19.6L192 52.1l7.8-2.8v18.2c0 5.8 3.2 11.2 8.2 14l8.8 4.9c2.2 1.2 3.5 3.5 3.5 6v27.7h.1z" fill="#d96b28" fill-rule="nonzero"/><path d="M372.1 108.2h-22.6v-2h20.6v-7.8c0-4.8-8.3-8.3-16.1-9.4l.3-2c8.2 1.2 17.8 4.9 17.8 11.4v9.8z" fill="#d96b28" fill-opacity=".1" fill-rule="nonzero"/><path d="M406.8 108.2h-16.7v-7.3c0-6 10.8-8.7 16.3-8.7v2c-4.9.1-14.3 2.5-14.3 6.7v5.3h14.7v2z" fill="#d96b28" fill-opacity=".05" fill-rule="nonzero"/><path d="M423.1 108.2h-16.3v-2h14.3v-5.3c0-4.2-9.4-6.7-14.5-6.7v-2c4.9 0 16.5 2.5 16.5 8.7v7.3zm-16.5-19.8c-4.4 0-8-3.6-8-8s3.6-8 8-8 8 3.6 8 8-3.6 8-8 8zm0-14c-3.3 0-6 2.7-6 6s2.7 6 6 6 6-2.7 6-6-2.7-6-6-6z" fill="#d96b28" fill-opacity=".25"/><path d="M349.5 108.2h-22.6v-9.8c0-8.4 15.9-11.8 22.6-11.8 1.4 0 3.1.1 4.8.4l-.3 2c-1.6-.2-3.2-.4-4.5-.4-7.3 0-20.6 3.7-20.6 9.8v7.8h20.6v2zm0-27.5c-6 0-10.8-4.9-10.8-10.8S343.5 59 349.5 59c5.9 0 10.8 4.9 10.8 10.8s-4.9 10.9-10.8 10.9zm0-19.7c-4.9 0-8.8 4-8.8 8.8 0 4.8 4 8.8 8.8 8.8 4.8 0 8.8-4 8.8-8.8 0-4.8-4-8.8-8.8-8.8z" fill="#d96b28" fill-opacity=".5"/><path d="M407.9 108.2h-59.4V95.4c0-10.9 20.9-15.3 29.7-15.3s29.7 4.4 29.7 15.3v12.8zm-29.91-26.1c-9.433.037-27.59 4.734-27.59 13.3v10.8h55.4V95.4c0-8.6-18.3-13.3-27.7-13.3h-.11zm.11-10.4c-7.7 0-14-6.3-14-14s6.3-14 14-14 14 6.3 14 14-6.3 14-14 14zm0-26.1c-6.6 0-12 5.4-12 12s5.4 12 12 12 12-5.4 12-12-5.4-12-12-12z" fill="#d96b28"/></svg>