<svg viewBox="0 0 450 150" xmlns="http://www.w3.org/2000/svg" fill-rule="evenodd" clip-rule="evenodd" stroke-linejoin="round" stroke-miterlimit="1.414"><path d="M102.2 116.1L86.3 66.7c-.9-2.8-1.3-5.6-1.3-8.5v-3.6h.2c2.1 0 3.8-1.7 3.8-3.8 0-2.1-1.7-3.8-3.8-3.8H64.9c-2.1 0-3.8 1.7-3.8 3.8 0 2.1 1.7 3.8 3.8 3.8h.2v3.6c0 2.9-.4 5.8-1.3 8.5l-15.9 49.4c-.9 2.7-.4 5.5 1.2 7.7 1.6 2.3 4.2 3.6 7 3.6H94c2.8 0 5.3-1.3 7-3.6 1.6-2.2 2-5 1.2-7.7zM64.9 52.6c-1 0-1.8-.8-1.8-1.8s.8-1.8 1.8-1.8h20.2c1 0 1.8.8 1.8 1.8s-.8 1.8-1.8 1.8H64.9zm.7 14.7c1-3 1.4-6 1.4-9.1v-3.6h15.8v3.6c0 3.1.5 6.2 1.4 9.1l6.8 21H58.9l6.7-21zm33.7 55.4c-1.3 1.7-3.2 2.7-5.4 2.7H56.1c-2.1 0-4.1-1-5.4-2.7-1.3-1.7-1.6-3.9-1-5.9l8.5-26.4h33.5l8.5 26.4c.7 2 .4 4.1-.9 5.9z" fill="#0077af" fill-rule="nonzero"/><path d="M68.4 118c-2.5 0-4.5-2-4.5-4.5s2-4.5 4.5-4.5 4.5 2 4.5 4.5-2 4.5-4.5 4.5zm0-7.1c-1.4 0-2.5 1.1-2.5 2.5s1.1 2.5 2.5 2.5 2.5-1.1 2.5-2.5-1.1-2.5-2.5-2.5zm13.5-3.6c-3.4 0-6.2-2.8-6.2-6.2 0-3.4 2.8-6.2 6.2-6.2 3.4 0 6.2 2.8 6.2 6.2 0 3.5-2.8 6.2-6.2 6.2zm0-10.3c-2.3 0-4.2 1.9-4.2 4.2 0 2.3 1.9 4.2 4.2 4.2 2.3 0 4.2-1.9 4.2-4.2 0-2.3-1.9-4.2-4.2-4.2z" fill="#0077af" fill-opacity=".25"/><path d="M70.3 42.7c-1.9 0-3.4-1.5-3.4-3.4s1.5-3.4 3.4-3.4 3.4 1.5 3.4 3.4-1.5 3.4-3.4 3.4zm0-4.8c-.8 0-1.4.6-1.4 1.4 0 .8.6 1.4 1.4 1.4.8 0 1.4-.6 1.4-1.4 0-.8-.6-1.4-1.4-1.4zm8.1.6c-2.6 0-4.7-2.1-4.7-4.7s2.1-4.7 4.7-4.7 4.7 2.1 4.7 4.7-2.1 4.7-4.7 4.7zm0-7.4c-1.5 0-2.7 1.2-2.7 2.7 0 1.5 1.2 2.7 2.7 2.7 1.5 0 2.7-1.2 2.7-2.7 0-1.5-1.3-2.7-2.7-2.7zm-7.3-3.4c-1.5 0-2.6-1.2-2.6-2.6 0-1.4 1.2-2.6 2.6-2.6 1.4 0 2.6 1.2 2.6 2.6 0 1.4-1.2 2.6-2.6 2.6zm0-3.2c-.4 0-.6.3-.6.6s.3.6.6.6.6-.3.6-.6-.3-.6-.6-.6z" fill="#0077af" fill-opacity=".5"/><path d="M70 110.7h10v2H70v-2zm10-14.8v2H70v-2h10zM70 81.2h10v2H70v-2z" fill="#0077af" fill-opacity=".75"/><path d="M276.3 50.9v52h-94v-66h80l14 14zm-15.5 1.4V38.9h-76.6v62h90V52.3h-13.4zm-59.1 35.3h55v-1h1v3h-1v-1h-55v1h-1v-3h1v1zm62.1-31v1h-1.1v25h1.1v1h-3v-1h.9v-25h-.9v-1h3zm-6.6.5v26h-56v-26h56zm-29.5 24V70.6h-24.5v10.5h24.5zm27.5 0V70.6h-26.5v10.5h26.5zm-59.5-11.5h1v-12h-1v-1h3v1h-1v12h1v1h-3v-1zm32 0V59.1h-24.5v10.5h24.5zm-26-17h26v-1h1v3h-1v-1h-26v1h-1v-3h1v1zm71.2-2.3l-10-10v10h10zm-17.7 19.3V59.1h-26.5v10.5h26.5z" fill="#0077af"/><path d="M271.7 98.4h-85v-57h75.2v1h-74.2v55h83V51.3h1v47.1z" fill="#0077af" fill-opacity=".5" fill-rule="nonzero"/><path d="M266.2 51.3V102h-2V51.3h2zm-4.3-4.4v2h-78.7v-2h78.7z" fill="#0077af" fill-opacity=".1"/><path d="M264.2 102v8.9h-90v-62h9v-2h-11v66h94V102h-2z" fill="#0077af" fill-opacity=".25" fill-rule="nonzero"/><path d="M343.6 111.8h-13v-2h14.2l-1.2 2z" fill="#0077af" fill-opacity=".5" fill-rule="nonzero"/><path d="M421.6 111.8h-78l1.2-2h74.8v-61h2v63zm-15.4-66v2h-18.4v-2h18.4z" fill="#0077af" fill-opacity=".1"/><path d="M423.6 49.8v-6h-6v2h-5.3l-10.2-10.2-1.4 1.4 8.8 8.8h-2.9l-8.1-8.1-11.4 8.1h-55.5v-2h-6v6h2v58h-2v6h6v-6h-2v-58h2v-2h52.7c-4.6 3.3-7.5 8.6-7.7 14.2l-.1 2-21.4 13-12.7 36.6L365.1 91l-.3-.6c-.9-1.7-.5-3.7.8-5.1 1.7-1.7 4.5-1.7 6.2 0 1.7 1.7 1.7 4.5 0 6.2-1.3 1.3-3.4 1.7-5.1.8l-.7-.4-22.7 22.7 36.6-12.7 13.3-22h1.1c5.7-.2 11-3.1 14.3-7.7L418.7 58l-10.1-10.1h2.9l8.2 8.2 1.4-1.4-6.8-6.8h3.3v2h6v-.1zm-94 62h-2v-2h2v2zm0-64h-2v-2h2v2zm49 52.4l-27.7 9.6 15.5-15.5c2.3.9 4.9.3 6.7-1.5 2.5-2.5 2.5-6.5 0-9s-6.5-2.5-9 0c-1.8 1.8-2.3 4.4-1.5 6.7L347.2 106l9.6-27.7 21-12.8 13.6 13.6-12.8 21.1zM407 70.9c-3 4.2-7.6 6.7-12.7 6.9l-1.4.1-14.3-14.4.1-1.4c.2-5 2.8-9.8 6.9-12.7l12.8-9.1 17.8 17.8-9.2 12.8zm12.6-25.1h2v2h-2v-2z" fill="#0077af" fill-rule="nonzero"/></svg>