<svg viewBox="0 0 300 99" xmlns="http://www.w3.org/2000/svg" fill-rule="evenodd" clip-rule="evenodd" stroke-linejoin="round" stroke-miterlimit="1.414"><path d="M98.6 0v49.5C98.6 76.84 76.527 99 49.3 99 22.07 99 0 76.84 0 49.5S22.072 0 49.3 0h49.3zm-4.028 4.043H49.3C24.335 4.043 4.026 24.436 4.026 49.5c0 25.066 20.31 45.457 45.272 45.457 24.963 0 45.272-20.39 45.272-45.457V4.043zm-49.364 75.71h10.93l-1.646 1.856h-7.637l-1.647-1.858zm12.215-6.374c1.13 0 2.047.92 2.047 2.1 0 1.135-.918 2.058-2.047 2.058h-13.5c-1.13 0-2.045-.923-2.045-2.103 0-1.134.916-2.056 2.045-2.056h13.5zm0-6.25c1.13 0 2.047.923 2.047 2.104 0 1.134-.918 2.055-2.047 2.055h-13.5c-1.13 0-2.045-.922-2.045-2.102 0-1.135.916-2.057 2.045-2.057h13.5zm87.253-6.22c-1.303 1.434-2.815 2.995-4.54 3.726-1.72.732-3.692 1.256-5.915 1.256-1.02 0-2.118-.115-3.293-.343-1.173-.233-2.35-.623-3.522-1.175-1.175-.55-2.298-1.28-3.37-2.19-1.07-.91-2.017-2.05-2.834-3.423-.816-1.37-1.473-2.992-1.97-4.863-.498-1.873-.748-4.038-.748-6.5 0-3.407.46-6.363 1.376-8.86.913-2.5 2.123-4.57 3.624-6.21 1.5-1.64 3.217-2.864 5.15-3.672 1.934-.807 3.93-1.21 5.993-1.21 1.575.026 2.948.23 4.118.614 1.17.386 2.163.853 2.98 1.404.81.552 1.453 1.09 1.925 1.613.47.525.845 1.02 1.125 1.48h.153l1.22-4.152h4.465v36.506h-5.822V60.91h-.112zm33.19 4.08c-.51.207-1.29.398-2.337.577-1.048.18-2.298.28-3.752.308-1.914 0-3.574-.237-4.977-.712-1.402-.473-2.57-1.152-3.502-2.037-.932-.884-1.627-1.954-2.087-3.21-.457-1.253-.687-2.65-.687-4.19V33.51h-7.007v-5.112h7.007v-9.993h5.933v9.993h10.873v5.112h-10.874v21.294c0 .846.122 1.63.364 2.346.24.717.625 1.34 1.15 1.863.522.526 1.19.937 2.008 1.23.817.297 1.8.444 2.948.444.793 0 1.63-.066 2.507-.193.88-.128 1.69-.295 2.432-.5v4.997zM288.59 28.4h10.872v5.112h-10.872v21.294c0 .846.12 1.63.363 2.346.242.717.624 1.34 1.148 1.863.523.526 1.193.937 2.01 1.23.817.297 1.8.444 2.95.444.79 0 1.625-.066 2.506-.193.88-.128 1.69-.295 2.43-.5v4.997c-.512.207-1.29.398-2.336.577-1.046.18-2.297.28-3.75.308-1.916 0-3.574-.237-4.978-.712-1.403-.473-2.57-1.152-3.504-2.037-.93-.884-1.625-1.954-2.085-3.21-.46-1.253-.688-2.65-.688-4.19V33.51h-19.682c-.43.064-.858.133-1.232.237-.97.275-1.768.657-2.39 1.143-.625.488-1.08 1.062-1.364 1.725-.285.662-.43 1.394-.43 2.193 0 .974.213 1.775.636 2.4.423.625.99 1.132 1.704 1.518.71.39 1.534.707 2.468.956.937.25 1.905.476 2.902.675 1.375.3 2.67.63 3.892.993 1.223.362 2.352.906 3.39 1.63 1.032.726 1.87 1.707 2.506 2.943.636 1.237.953 2.844.953 4.82 0 1.797-.356 3.39-1.07 4.777-.715 1.388-1.723 2.55-3.024 3.487-1.304.937-2.86 1.65-4.67 2.136-1.814.49-3.805.732-5.974.732-1.33 0-2.534-.07-3.62-.206-1.082-.14-2.04-.315-2.87-.527-.828-.21-1.537-.43-2.125-.655-.585-.225-1.07-.438-1.453-.637v-4.873c1.503.6 2.995 1.074 4.472 1.425 1.48.35 3.106.524 4.886.524 1.404 0 2.67-.124 3.797-.374 1.128-.25 2.097-.618 2.913-1.105.814-.49 1.44-1.1 1.88-1.838.438-.737.657-1.595.657-2.57 0-.998-.2-1.822-.6-2.474-.402-.65-.942-1.186-1.618-1.612-.675-.424-1.46-.773-2.348-1.05-.89-.273-1.824-.524-2.8-.75-1.278-.273-2.575-.6-3.89-.973-1.315-.375-2.51-.9-3.59-1.574-1.076-.676-1.947-1.593-2.61-2.756-.665-1.162-.996-2.655-.996-4.48 0-1.873.345-3.5 1.035-4.874.69-1.373 1.62-2.51 2.793-3.41 1.174-.902 2.54-1.575 4.097-2.025 1.556-.45 3.203-.674 4.94-.674h18.434v-9.98h5.932v9.992zM57.785 64.916h-14.24l-10.4-16.83-.354-.713c-1.39-2.81-2.096-5.808-2.096-8.906 0-11.06 8.964-20.058 19.98-20.058 9.93 0 18.227 7.155 19.724 17.016.173 1.152.255 2.116.255 3.04 0 .762-.058 1.57-.178 2.54-.086.677-.207 1.353-.36 2.005-.35 1.53-.885 3.02-1.59 4.43h-6.678c-.66 0-1.314-.105-1.95-.307-1.14-.37-2.156-1.055-2.934-1.984l-.146-.176-.172.154c-.463.42-.97.792-1.506 1.104-1.36.79-2.905 1.21-4.466 1.21-4.928 0-8.937-4.028-8.937-8.975 0-4.946 4.01-8.972 8.937-8.972 1.56 0 3.105.418 4.465 1.208l.33.192V29.41l4.14-.04v11.664c0 1.236.998 2.242 2.174 2.242h.012l3.976.008.046-.156c.19-.618.34-1.29.465-2.058.155-.943.228-1.79.228-2.594 0-.8-.072-1.64-.224-2.575l-.03-.212c-.016-.112-.032-.225-.053-.337-1.473-7.403-8.003-12.778-15.53-12.778-8.733 0-15.838 7.136-15.838 15.904S41.94 54.38 50.675 54.38h9.594l1.975 3.184-4.46 7.352zm128.705-.002h-5.933V28.398h4.594l1.15 5.073h.114c.663-.844 1.383-1.632 2.164-2.363.778-.73 1.645-1.37 2.602-1.92.958-.552 2.01-.98 3.16-1.29 1.146-.307 2.397-.46 3.75-.46 2.705 0 4.95.654 6.738 1.96 1.786 1.306 3.166 3.088 4.134 5.344h.153c1.61-2.28 3.45-4.07 5.522-5.363 2.07-1.293 4.485-1.94 7.246-1.94 1.278 0 2.63.18 4.064.537 1.43.36 2.747 1.02 3.95 1.98 1.202.962 2.197 2.288 2.99 3.98.79 1.69 1.188 3.868 1.188 6.533v24.447h-5.933V41.427c0-1.588-.174-2.94-.516-4.054-.345-1.115-.843-2.03-1.494-2.748-.65-.717-1.43-1.243-2.336-1.577-.905-.332-1.92-.5-3.043-.5-2.117 0-4.05.573-5.8 1.71-1.75 1.14-3.31 2.712-4.69 4.71v25.946h-5.934V41.427c0-1.588-.172-2.94-.517-4.054-.343-1.115-.843-2.03-1.493-2.748-.65-.717-1.43-1.243-2.335-1.577-.907-.332-1.92-.5-3.043-.5-2.12 0-4.046.573-5.78 1.71-1.738 1.14-3.294 2.712-4.672 4.71v25.946zm59.107 0h-5.933V28.398h5.933v36.516zm-120.91-18.012c0 2.868.345 5.215 1.033 7.034.69 1.824 1.565 3.237 2.624 4.25 1.06 1.012 2.215 1.704 3.465 2.074 1.25.373 2.437.56 3.56.56 1.838 0 3.562-.61 5.17-1.353 1.606-.743 3.025-2.012 4.25-3.293V37.557c-.332-.46-.793-.985-1.38-1.576-.586-.588-1.27-1.132-2.047-1.632-.78-.5-1.665-.922-2.66-1.27-.996-.345-2.083-.518-3.256-.518-1.762 0-3.314.353-4.654 1.057-1.34.707-2.463 1.687-3.37 2.943-.905 1.255-1.588 2.762-2.047 4.517-.46 1.755-.69 3.696-.69 5.825zm-74.013-3.618c-2.646 0-4.797-2.16-4.797-4.817 0-2.655 2.15-4.815 4.797-4.815 2.644 0 4.797 2.16 4.797 4.815 0 2.657-2.152 4.817-4.796 4.817zm194.77-18.23h-5.933v-6.65h5.935v6.65z" fill="#0084c2"/></svg>