<svg width="100%" height="100%" viewBox="0 0 116 250" version="1.1" xmlns="http://www.w3.org/2000/svg" xmlns:xlink="http://www.w3.org/1999/xlink" xml:space="preserve" style="fill-rule:evenodd;clip-rule:evenodd;stroke-linejoin:round;stroke-miterlimit:1.41421;"><path id="record.-player.-armshadow" d="M61,43.546l0,-5.546c0,-1.326 0.527,-2.598 1.464,-3.536c0.938,-0.937 2.21,-1.464 3.536,-1.464c0,0 0,0 0,0c2.761,0 5,2.239 5,5l0,5.546c10.293,2.285 18,11.477 18,22.454c0,10.977 -7.707,20.169 -18,22.454l0,93.403c0,1.591 -0.632,3.117 -1.757,4.243c-4.883,4.882 -18.255,18.254 -18.255,18.254c0,0 0,0 0,0c0.563,0.563 0.879,1.326 0.879,2.122c0,0.795 -0.316,1.558 -0.879,2.121c-3.109,3.109 -9.013,9.013 -13.437,13.436c-1.499,1.5 -3.534,2.343 -5.655,2.343c-2.121,0 -4.155,-0.843 -5.655,-2.343c-0.001,0 -0.001,-0.001 -0.002,-0.001c-1.5,-1.5 -2.343,-3.535 -2.343,-5.657c0,-2.122 0.843,-4.156 2.343,-5.657c4.423,-4.423 10.326,-10.326 13.435,-13.435c0.563,-0.562 1.326,-0.878 2.122,-0.878c0.795,0 1.558,0.316 2.121,0.878c0,0 0,0 0,0c0,0 12.712,-12.712 16.204,-16.204c0.563,-0.563 0.879,-1.326 0.879,-2.122l0,-90.503c-10.293,-2.285 -18,-11.477 -18,-22.454c0,-10.977 7.707,-20.169 18,-22.454Z" style="fill-opacity:0.301961;"/></svg>