<svg width="100%" height="100%" viewBox="0 0 116 250" version="1.1" xmlns="http://www.w3.org/2000/svg" xmlns:xlink="http://www.w3.org/1999/xlink" xml:space="preserve" style="fill-rule:evenodd;clip-rule:evenodd;stroke-linejoin:round;stroke-miterlimit:1.41421;"><g id="record.-player.-arm"><path d="M25.917,199.283c0,0 21.551,-21.551 26.204,-26.204c0.563,-0.563 0.879,-1.326 0.879,-2.122c0,-12.57 0,-116.772 0,-140.957c0,-1.326 0.527,-2.598 1.464,-3.536c0.938,-0.937 2.21,-1.464 3.536,-1.464c0,0 0,0 0,0c2.761,0 5,2.239 5,5c0,23.956 0,126.546 0,143.857c0,1.591 -0.632,3.117 -1.757,4.243c-6.424,6.423 -28.255,28.254 -28.255,28.254l-7.071,-7.071Z" style="fill:#e6e6e6;"/><path d="M35.917,189.283l7.071,7.071c0.563,0.563 0.879,1.326 0.879,2.122c0,0.795 -0.316,1.558 -0.879,2.121c-3.109,3.109 -9.013,9.013 -13.437,13.436c-1.499,1.5 -3.534,2.343 -5.655,2.343c-2.121,0 -4.155,-0.843 -5.655,-2.343c-0.001,0 -0.001,-0.001 -0.002,-0.001c-1.5,-1.5 -2.343,-3.535 -2.343,-5.657c0,-2.122 0.843,-4.156 2.343,-5.657c4.423,-4.423 10.326,-10.326 13.435,-13.435c0.563,-0.562 1.326,-0.878 2.122,-0.878c0.795,0 1.558,0.316 2.121,0.878c0,0 0,0 0,0Z" style="fill:#e74c3c;"/><path d="M35.917,189.283c0,0 -0.289,0.237 -0.803,0.657c-0.599,0.49 -1.477,0.424 -1.996,-0.149c-0.519,-0.574 -0.497,-1.454 0.05,-2.001c0.005,-0.005 0.009,-0.01 0.014,-0.014c0.163,-0.163 0.383,-0.255 0.614,-0.255c0.23,0 0.451,0.092 0.613,0.255c0.627,0.626 1.508,1.507 1.508,1.507Z" style="fill:#e74c3c;"/></g></svg>