<svg width="100%" height="100%" viewBox="0 0 340 250" version="1.1" xmlns="http://www.w3.org/2000/svg" xmlns:xlink="http://www.w3.org/1999/xlink" xml:space="preserve" style="fill-rule:evenodd;clip-rule:evenodd;stroke-linejoin:round;stroke-miterlimit:1.41421;"><g id="record.-player.-armpivot"><circle cx="282" cy="58" r="23" style="fill:#333;"/><path d="M295.216,45.784c3.556,3.29 5.784,7.995 5.784,13.216c0,9.934 -8.066,18 -18,18c-5.221,0 -9.926,-2.228 -13.216,-5.784c3.21,2.969 7.503,4.784 12.216,4.784c9.934,0 18,-8.066 18,-18c0,-4.713 -1.815,-9.006 -4.784,-12.216Z" style="fill-opacity:0.301961;"/><circle cx="282" cy="58" r="18" style="fill:#c0392b;"/><circle cx="282" cy="58" r="16.26" style="fill:#333;"/><path d="M271.015,69.985c-3.242,-2.974 -5.275,-7.244 -5.275,-11.985c0,-8.974 7.286,-16.26 16.26,-16.26c4.741,0 9.011,2.033 11.985,5.275c-2.895,-2.654 -6.752,-4.275 -10.985,-4.275c-8.974,0 -16.26,7.286 -16.26,16.26c0,4.233 1.621,8.09 4.275,10.985Z" style="fill-opacity:0.301961;"/></g></svg>