<svg width="100%" height="100%" viewBox="0 0 340 250" version="1.1" xmlns="http://www.w3.org/2000/svg" xmlns:xlink="http://www.w3.org/1999/xlink" xml:space="preserve" style="fill-rule:evenodd;clip-rule:evenodd;stroke-linejoin:round;stroke-miterlimit:1.41421;"><g id="record.-player.-base"><g id="box"><path d="M340,14.564c0,-3.863 -1.534,-7.567 -4.266,-10.298c-2.731,-2.732 -6.435,-4.266 -10.298,-4.266c-55.733,0 -255.139,0 -310.872,0c-3.863,0 -7.567,1.534 -10.298,4.266c-2.732,2.731 -4.266,6.435 -4.266,10.298c0,44.226 0,176.646 0,220.872c0,3.863 1.534,7.567 4.266,10.298c2.731,2.732 6.435,4.266 10.298,4.266c55.733,0 255.139,0 310.872,0c3.863,0 7.567,-1.534 10.298,-4.266c2.732,-2.731 4.266,-6.435 4.266,-10.298c0,-44.226 0,-176.646 0,-220.872Z" style="fill:#344947;"/><path d="M181.245,0l141.53,0l-248.75,250c0,0 -37.856,0 -59.425,0c-8.063,0 -14.6,-6.537 -14.6,-14.6c0,-20.185 0,-54.155 0,-54.155l181.245,-181.245Zm89.772,250l-20.66,0l89.678,-90.035l-0.035,20.818l-68.983,69.217Z" style="fill:#fff;fill-opacity:0.0509804;"/><path d="M335,15c0,-2.652 -1.054,-5.196 -2.929,-7.071c-1.875,-1.875 -4.419,-2.929 -7.071,-2.929c-48.764,0 -261.236,0 -310,0c-2.652,0 -5.196,1.054 -7.071,2.929c-1.875,1.875 -2.929,4.419 -2.929,7.071c0,39.041 0,180.959 0,220c0,2.652 1.054,5.196 2.929,7.071c1.875,1.875 4.419,2.929 7.071,2.929c48.764,0 261.236,0 310,0c2.652,0 5.196,-1.054 7.071,-2.929c1.875,-1.875 2.929,-4.419 2.929,-7.071c0,-39.041 0,-180.959 0,-220Z" style="fill:#27ae60;"/><path d="M280.017,245l-20.66,0l75.643,-76l-0.035,20.818l-54.948,55.182Zm-101.772,-238l141.51,0l-236.755,238l-68,0c-2.215,0 -4.354,-0.735 -6.066,-2.105c-1.233,-1.671 -1.915,-3.702 -1.934,-5.895l0,-58.755l171.245,-171.245Z" style="fill:#fff;fill-opacity:0.101961;"/><path d="M9,243c-0.376,-0.282 -0.734,-0.592 -1.071,-0.929c-1.875,-1.875 -2.929,-4.419 -2.929,-7.071c0,-39.041 0,-180.959 0,-220c0,-2.652 1.054,-5.196 2.929,-7.071c1.875,-1.875 4.419,-2.929 7.071,-2.929c48.764,0 261.236,0 310,0c2.652,0 5.196,1.054 7.071,2.929c0.337,0.337 0.647,0.695 0.929,1.071c-1.721,-1.291 -3.824,-2 -6,-2c-48.764,0 -261.236,0 -310,0c-2.652,0 -5.196,1.054 -7.071,2.929c-1.875,1.875 -2.929,4.419 -2.929,7.071c0,39.041 0,180.959 0,220c0,2.176 0.709,4.279 2,6Z" style="fill-opacity:0.301961;"/><circle cx="133" cy="133" r="90" style="fill-opacity:0.301961;"/><circle cx="125" cy="125" r="90" style="fill:#ccc;"/><path d="M139.292,36.131c36.225,5.79 65.264,33.229 73.415,68.614l-107.501,108.067c-35.608,-8.004 -63.26,-37.138 -69.075,-73.52l103.161,-103.161Z" style="fill:#fff;fill-opacity:0.501961;"/></g><g id="knobcontrols"><g><rect x="259" y="189" width="46" height="26" style="fill:#333;"/><path d="M305,215l-46,0l1,1l46,0l-0.038,-26l-0.962,-1l0,26" style="fill-opacity:0.301961;"/></g><g><circle cx="296" cy="206" r="8" style="fill-opacity:0.301961;"/><circle cx="292" cy="202" r="8" style="fill:#f29c78;"/><circle cx="292" cy="202" r="6" style="fill:#e74c3c;"/><path d="M288.016,206.484c-1.237,-1.099 -2.016,-2.701 -2.016,-4.484c0,-3.311 2.689,-6 6,-6c1.783,0 3.385,0.779 4.484,2.016c-1.059,-0.943 -2.455,-1.516 -3.984,-1.516c-3.311,0 -6,2.689 -6,6c0,1.529 0.573,2.925 1.516,3.984Z" style="fill-opacity:0.301961;"/></g><g><circle cx="276" cy="206" r="8" style="fill-opacity:0.301961;"/><circle cx="272" cy="202" r="8" style="fill:#f29c78;"/><circle cx="272" cy="202" r="6" style="fill:#e74c3c;"/><path d="M268.016,206.484c-1.237,-1.099 -2.016,-2.701 -2.016,-4.484c0,-3.311 2.689,-6 6,-6c1.783,0 3.385,0.779 4.484,2.016c-1.059,-0.943 -2.455,-1.516 -3.984,-1.516c-3.311,0 -6,2.689 -6,6c0,1.529 0.573,2.925 1.516,3.984Z" style="fill-opacity:0.301961;"/></g></g><g id="volumecontrols"><path d="M305,94l-20,0l0,85l20,0l0,-85Z" style="fill:#333;"/><path d="M305,179l-20,0l1,1l20,0l-0.038,-85l-0.962,-1l0,85" style="fill-opacity:0.301961;"/><path d="M298,103c0,-0.796 -0.316,-1.559 -0.879,-2.121c-0.562,-0.563 -1.325,-0.879 -2.121,-0.879c-0.796,0 -1.559,0.316 -2.121,0.879c-0.563,0.562 -0.879,1.325 -0.879,2.121c0,11.945 0,56.055 0,68c0,0.796 0.316,1.559 0.879,2.121c0.562,0.563 1.325,0.879 2.121,0.879c0.796,0 1.559,-0.316 2.121,-0.879c0.563,-0.562 0.879,-1.325 0.879,-2.121c0,-11.945 0,-56.055 0,-68Z" style="fill-opacity:0.4;"/><path d="M305,143c0,-0.552 -0.448,-1 -1,-1c-2.873,0 -11.127,0 -14,0c-0.552,0 -1,0.448 -1,1c0,1.537 0,4.463 0,6c0,0.552 0.448,1 1,1c2.873,0 11.127,0 14,0c0.552,0 1,-0.448 1,-1c0,-1.537 0,-4.463 0,-6Z" style="fill-opacity:0.301961;"/><path d="M303,141c0,-0.552 -0.448,-1 -1,-1c-2.873,0 -11.127,0 -14,0c-0.552,0 -1,0.448 -1,1c0,1.537 0,4.463 0,6c0,0.552 0.448,1 1,1c2.873,0 11.127,0 14,0c0.552,0 1,-0.448 1,-1c0,-1.537 0,-4.463 0,-6Z" style="fill:#e74c3c;"/></g></g></svg>