<svg width="100%" height="100%" viewBox="0 0 600 256" version="1.1" xmlns="http://www.w3.org/2000/svg" xmlns:xlink="http://www.w3.org/1999/xlink" xml:space="preserve" style="fill-rule:evenodd;clip-rule:evenodd;stroke-linejoin:round;stroke-miterlimit:1.41421;">
    <g id="console" transform="matrix(1.00503,0,0,1.00392,-126.633,-173.678)">
        <g transform="matrix(1,0,0,1,0,2)">
            <path d="M307,174.988C307,173.338 305.664,172 304.015,172C300.758,172 296,172 296,172L295,173L281,173L280,172C280,172 275.242,172 271.985,172C270.336,172 269,173.338 269,174.988C269,175.568 269,176 269,176L307,176C307,176 307,175.568 307,174.988Z" style="fill:rgb(48,48,48);"/>
        </g>
        <g transform="matrix(9.97619,0,0,6.46154,-1929.88,-961.231)">
            <path d="M257,177.85C256.339,177.85 255.803,177.022 255.803,176C249.72,176 222.28,176 216.197,176C216.197,177.022 215.661,177.85 215,177.85C215,185.02 215,210.766 215,214.538C215,214.66 215.032,214.778 215.088,214.865C215.144,214.951 215.22,215 215.299,215C218.864,215 253.136,215 256.701,215C256.78,215 256.856,214.951 256.912,214.865C256.968,214.778 257,214.66 257,214.538C257,210.766 257,185.02 257,177.85Z" style="fill:rgb(76,76,76);"/>
        </g>
        <g transform="matrix(2.04145,0,0,1.15122,-237.451,-27.8244)">
            <path d="M421,194.383C421,191.629 420.384,188.988 419.287,187.041C418.19,185.094 416.702,184 415.151,184C386.631,184 262.369,184 233.849,184C230.619,184 228,188.649 228,194.383C228,229.488 228,343.512 228,378.617C228,381.371 228.616,384.012 229.713,385.959C230.81,387.906 232.298,389 233.849,389C262.369,389 386.631,389 415.151,389C418.381,389 421,384.351 421,378.617C421,343.512 421,229.488 421,194.383Z" style="fill:rgb(48,48,48);"/>
        </g>
        <path d="M272,416L275,420L253,420L256,416L272,416ZM593,416L596,420L574,420L577,416L593,416Z" style="fill:rgb(34,34,34);"/>
        <g transform="matrix(0.994203,0,0,1.01523,4.44928,-4.59137)">
            <rect x="250" y="203" width="345" height="197" style="fill:rgb(34,34,34);"/>
        </g>
        <g transform="matrix(0.263943,0,0,0.875144,200.942,183.878)">
            <path d="M373.934,0.139L102.513,82.09L102.513,139L562.422,0.139L373.934,0.139Z" style="fill:white;fill-opacity:0.0509804;"/>
        </g>
        <g transform="matrix(0.263943,0,0,0.875144,200.942,261.574)">
            <path d="M102.513,167.37C102.513,170.993 107.279,174.467 115.762,177.028C124.246,179.59 135.752,181.029 147.75,181.029C172.115,181.029 197.23,181.029 197.23,181.029L208.539,176.476L269.259,176.476L280.569,181.029L336.518,181.029L1229.67,-88.641L667.975,-88.641L102.513,82.09C102.513,82.09 102.513,140.226 102.513,167.37Z" style="fill:white;fill-opacity:0.0509804;"/>
        </g>
    </g>
</svg>
