<svg width="100%" height="100%" viewBox="0 0 600 256" version="1.1" xmlns="http://www.w3.org/2000/svg" xmlns:xlink="http://www.w3.org/1999/xlink" xml:space="preserve" style="fill-rule:evenodd;clip-rule:evenodd;stroke-linejoin:round;stroke-miterlimit:1.41421;">
    <g id="joyconleft" transform="matrix(1.00503,0,0,1.00392,-126.633,-173.678)">
        <g transform="matrix(1.01299,0,0,1,-1.63636,-1.63425e-13)">
            <path d="M203,178.229C203,175.341 200.689,173 197.838,173C187.7,173 191.325,173 174.055,173C144.984,173 127.097,200.348 126.987,208.721C126.977,209.515 126.987,210.105 126.987,210.476C126.987,211.967 127.726,213 128.962,213C130.197,213 203,213 203,213C203,213 203,189.071 203,178.229Z" style="fill:rgb(48,48,48);"/>
        </g>
        <path d="M223,227.988C223,226.338 221.664,225 220.015,225C217.742,225 215,225 215,225L215,246C215,246 217.742,246 220.015,246C221.664,246 223,244.662 223,243.012C223,239.018 223,231.982 223,227.988Z" style="fill:rgb(76,76,76);"/>
        <g transform="matrix(1,0,0,1,9.9476e-14,118)">
            <path d="M223,227.988C223,226.338 221.664,225 220.015,225C217.742,225 215,225 215,225L215,246C215,246 217.742,246 220.015,246C221.664,246 223,244.662 223,243.012C223,239.018 223,231.982 223,227.988Z" style="fill:rgb(76,76,76);"/>
        </g>
        <g transform="matrix(1.4127,0,0,1.82609,-88.7302,-145.391)">
            <path d="M215,177.636C215,176.733 214.054,176 212.887,176C208.566,176 198.197,176 187.216,176C167.767,176 152,188.211 152,203.274C152,227.445 152,262.555 152,286.726C152,301.789 167.767,314 187.216,314C198.197,314 208.566,314 212.887,314C214.054,314 215,313.267 215,312.364C215,297.9 215,192.1 215,177.636Z" style="fill:rgb(0,199,234);"/>
        </g>
        <g transform="matrix(0.666667,0,0,0.973214,72.3333,2.16964)">
            <path d="M226,196.071C226,194.375 223.995,193 221.523,193C218.113,193 214,193 214,193L214,406.725L220,406.725C220,406.725 220,411.944 220,414.943C220,415.488 220.316,416.012 220.879,416.397C221.441,416.783 222.204,417 223,417C223,417 223,417 223,417C223.796,417 224.559,416.783 225.121,416.397C225.684,416.012 226,415.488 226,414.943C226,407.636 226,383.055 226,377.172C226,376.357 225.528,375.575 224.687,375C224.563,374.915 224.437,374.829 224.313,374.744C223.472,374.168 223,373.386 223,372.571C223,368.066 223,352.906 223,348.401C223,347.586 223.472,346.805 224.313,346.229C224.437,346.144 224.563,346.058 224.687,345.973C225.528,345.397 226,344.615 226,343.801C226,333.653 226,265.997 226,255.85C226,255.035 225.528,254.253 224.687,253.677C224.563,253.593 224.437,253.506 224.313,253.421C223.472,252.846 223,252.064 223,251.249C223,246.758 223,231.684 223,227.194C223,226.379 223.472,225.597 224.313,225.021C224.437,224.936 224.563,224.85 224.687,224.765C225.528,224.189 226,223.408 226,222.593C226,218.07 226,202.69 226,196.071Z" style="fill:rgb(22,19,19);"/>
        </g>
        <g transform="matrix(0.666667,0,0,0.915179,68.3333,16.3705)">
            <rect x="220" y="193" width="6" height="224" style="fill:rgb(48,48,48);"/>
        </g>
    </g>
    <g id="joyconleftbuttons" transform="matrix(1.00503,0,0,1.00392,-126.633,-173.678)">
        <g id="circle">
            <g transform="matrix(1.14286,0,0,1.14286,-26.2857,-51.1429)">
                <path d="M191,353.406C191,352.768 190.747,352.156 190.296,351.705C189.845,351.253 189.234,351 188.597,351C186.026,351 181.974,351 179.403,351C178.766,351 178.155,351.253 177.704,351.705C177.253,352.156 177,352.768 177,353.406C177,355.976 177,360.024 177,362.594C177,363.232 177.253,363.844 177.704,364.295C178.155,364.747 178.766,365 179.403,365C181.974,365 186.026,365 188.597,365C189.234,365 189.845,364.747 190.296,364.295C190.747,363.844 191,363.232 191,362.594C191,360.024 191,355.976 191,353.406Z" style="fill-opacity:0.301961;"/>
            </g>
            <path d="M191,352.992C191,351.892 190.109,351 189.01,351C186.347,351 181.653,351 178.99,351C177.891,351 177,351.892 177,352.992C177,355.655 177,360.345 177,363.008C177,364.108 177.891,365 178.99,365C181.653,365 186.347,365 189.01,365C190.109,365 191,364.108 191,363.008C191,360.345 191,355.655 191,352.992Z" style="fill:rgb(76,76,76);"/>
            <circle cx="184" cy="358" r="5" style="fill-opacity:0.301961;"/>
            <path d="M184,353C186.76,353 189,355.24 189,358C189,360.76 186.76,363 184,363C181.24,363 179,360.76 179,358C179,355.24 181.24,353 184,353ZM184,354C186.208,354 188,355.792 188,358C188,360.208 186.208,362 184,362C181.792,362 180,360.208 180,358C180,355.792 181.792,354 184,354Z" style="fill-opacity:0.301961;"/>
        </g>
        <g id="left" transform="matrix(1,0,0,1,-0.5,0)">
            <g transform="matrix(1,0,0,1,-19.5,20)">
                <circle cx="171.5" cy="291" r="10" style="fill-opacity:0.301961;"/>
            </g>
            <g transform="matrix(1,0,0,1,-19.5,18)">
                <circle cx="171.5" cy="291" r="10" style="fill:rgb(76,76,76);"/>
            </g>
            <g transform="matrix(-6.12323e-17,1,1,6.12323e-17,-138.5,137.5)">
                <path d="M171.5,286L167,293L176,293L171.5,286Z" style="fill-opacity:0.4;"/>
            </g>
        </g>
        <g id="down" transform="matrix(1,0,0,1,-0.5,1)">
            <g transform="matrix(1,0,0,1,0.5,39)">
                <circle cx="171.5" cy="291" r="10" style="fill-opacity:0.301961;"/>
            </g>
            <g transform="matrix(1,0,0,1,0.5,37)">
                <circle cx="171.5" cy="291" r="10" style="fill:rgb(76,76,76);"/>
            </g>
            <g transform="matrix(-1,-1.22465e-16,1.22465e-16,-1,343.5,618)">
                <path d="M171.5,286L167,293L176,293L171.5,286Z" style="fill-opacity:0.4;"/>
            </g>
        </g>
        <g id="right" transform="matrix(1,0,0,1,1.5,0)">
            <g transform="matrix(1,0,0,1,18.5,20)">
                <circle cx="171.5" cy="291" r="10" style="fill-opacity:0.301961;"/>
            </g>
            <g transform="matrix(1,0,0,1,18.5,18)">
                <circle cx="171.5" cy="291" r="10" style="fill:rgb(76,76,76);"/>
            </g>
            <g transform="matrix(6.12323e-17,1,-1,6.12323e-17,480.5,137.5)">
                <path d="M171.5,286L167,293L176,293L171.5,286Z" style="fill-opacity:0.4;"/>
            </g>
        </g>
        <g id="up" transform="matrix(1,0,0,1,2.84217e-14,-2)">
            <g transform="matrix(1,0,0,1,0,2)">
                <circle cx="171.5" cy="291" r="10" style="fill-opacity:0.301961;"/>
            </g>
            <circle cx="171.5" cy="291" r="10" style="fill:rgb(76,76,76);"/>
            <g transform="matrix(1,0,0,1,0,1)">
                <path d="M171.5,286L167,293L176,293L171.5,286Z" style="fill-opacity:0.4;"/>
            </g>
        </g>
        <g id="minus">
            <g transform="matrix(1,0,0,0.8,0,39.4)">
                <rect x="193" y="192" width="14" height="5" style="fill:rgb(76,76,76);"/>
            </g>
            <rect x="193" y="197" width="14" height="1" style="fill-opacity:0.301961;"/>
        </g>
        <g id="stick">
            <g transform="matrix(1,0,0,1,0,10)">
                <circle cx="171.5" cy="231.5" r="22.5" style="fill-opacity:0.301961;"/>
            </g>
            <circle cx="171.5" cy="231.5" r="22.5" style="fill:rgb(76,76,76);"/>
            <path d="M171.5,214C181.159,214 189,221.841 189,231.5C189,241.159 181.159,249 171.5,249C161.841,249 154,241.159 154,231.5C154,221.841 161.841,214 171.5,214ZM171.5,216C180.055,216 187,222.945 187,231.5C187,240.055 180.055,247 171.5,247C162.945,247 156,240.055 156,231.5C156,222.945 162.945,216 171.5,216Z" style="fill-opacity:0.2;"/>
            <path d="M171.5,214C181.159,214 189,221.841 189,231.5C189,241.159 181.159,249 171.5,249C161.841,249 154,241.159 154,231.5C154,221.841 161.841,214 171.5,214ZM171.5,215C180.607,215 188,222.393 188,231.5C188,240.607 180.607,248 171.5,248C162.393,248 155,240.607 155,231.5C155,222.393 162.393,215 171.5,215Z" style="fill-opacity:0.2;"/>
            <path d="M172,254L171,254L171,249L172,249L172,254ZM194,232L189,232L189,231L194,231L194,232ZM154,232L149,232L149,231L154,231L154,232ZM172,214L171,214L171,209L172,209L172,214Z" style="fill-opacity:0.4;"/>
        </g>
    </g>
    <g id="joyconright" transform="matrix(-1.00503,0,0,1.00392,726.633,-173.678)">
        <g transform="matrix(1.01299,0,0,1,-1.63636,-1.63425e-13)">
            <path d="M203,178.229C203,175.341 200.689,173 197.838,173C187.7,173 191.325,173 174.055,173C144.984,173 127.097,200.348 126.987,208.721C126.977,209.515 126.987,210.105 126.987,210.476C126.987,211.967 127.726,213 128.962,213C130.197,213 203,213 203,213C203,213 203,189.071 203,178.229Z" style="fill:rgb(48,48,48);"/>
        </g>
        <path d="M223,227.988C223,226.338 221.664,225 220.015,225C217.742,225 215,225 215,225L215,246C215,246 217.742,246 220.015,246C221.664,246 223,244.662 223,243.012C223,239.018 223,231.982 223,227.988Z" style="fill:rgb(76,76,76);"/>
        <g transform="matrix(1,0,0,1,9.9476e-14,118)">
            <path d="M223,227.988C223,226.338 221.664,225 220.015,225C217.742,225 215,225 215,225L215,246C215,246 217.742,246 220.015,246C221.664,246 223,244.662 223,243.012C223,239.018 223,231.982 223,227.988Z" style="fill:rgb(76,76,76);"/>
        </g>
        <g transform="matrix(1.4127,0,0,1.82609,-88.7302,-145.391)">
            <path d="M215,177.636C215,176.733 214.054,176 212.887,176C208.566,176 198.197,176 187.216,176C167.767,176 152,188.211 152,203.274C152,227.445 152,262.555 152,286.726C152,301.789 167.767,314 187.216,314C198.197,314 208.566,314 212.887,314C214.054,314 215,313.267 215,312.364C215,297.9 215,192.1 215,177.636Z" style="fill:rgb(255,75,82);"/>
        </g>
        <g transform="matrix(0.666667,0,0,0.973214,72.3333,2.16964)">
            <path d="M226,196.071C226,194.375 223.995,193 221.523,193C218.113,193 214,193 214,193L214,406.725L220,406.725C220,406.725 220,411.944 220,414.943C220,415.488 220.316,416.012 220.879,416.397C221.441,416.783 222.204,417 223,417C223,417 223,417 223,417C223.796,417 224.559,416.783 225.121,416.397C225.684,416.012 226,415.488 226,414.943C226,407.636 226,383.055 226,377.172C226,376.357 225.528,375.575 224.687,375C224.563,374.915 224.437,374.829 224.313,374.744C223.472,374.168 223,373.386 223,372.571C223,368.066 223,352.906 223,348.401C223,347.586 223.472,346.805 224.313,346.229C224.437,346.144 224.563,346.058 224.687,345.973C225.528,345.397 226,344.615 226,343.801C226,333.653 226,265.997 226,255.85C226,255.035 225.528,254.253 224.687,253.677C224.563,253.593 224.437,253.506 224.313,253.421C223.472,252.846 223,252.064 223,251.249C223,246.758 223,231.684 223,227.194C223,226.379 223.472,225.597 224.313,225.021C224.437,224.936 224.563,224.85 224.687,224.765C225.528,224.189 226,223.408 226,222.593C226,218.07 226,202.69 226,196.071Z" style="fill:rgb(22,19,19);"/>
        </g>
        <g transform="matrix(0.666667,0,0,0.915179,68.3333,16.3705)">
            <rect x="220" y="193" width="6" height="224" style="fill:rgb(48,48,48);"/>
        </g>
    </g>
    <g id="joyconrightbuttons" transform="matrix(1.00503,0,0,1.00392,-126.633,-173.678)">
        <g id="home">
            <g transform="matrix(1,0,0,1,491,69.4687)">
                <circle cx="171.5" cy="291" r="10" style="fill-opacity:0.301961;"/>
            </g>
            <g transform="matrix(1,0,0,1,491,67.4687)">
                <circle cx="171.5" cy="291" r="10" style="fill:rgb(76,76,76);"/>
            </g>
            <path d="M662.5,348.469C668.019,348.469 672.5,352.95 672.5,358.469C672.5,363.988 668.019,368.469 662.5,368.469C656.981,368.469 652.5,363.988 652.5,358.469C652.5,352.95 656.981,348.469 662.5,348.469ZM662.5,350.469C666.915,350.469 670.5,354.053 670.5,358.469C670.5,362.884 666.915,366.469 662.5,366.469C658.085,366.469 654.5,362.884 654.5,358.469C654.5,354.053 658.085,350.469 662.5,350.469Z" style="fill:white;fill-opacity:0.101961;"/>
            <path d="M668.337,358.469L666,358.469L666,363L659,363L659,358.469L656.663,358.469L662.5,353L668.337,358.469ZM664,358.469L661,358.469L661,361.469L664,361.469L664,358.469Z" style="fill-opacity:0.2;"/>
            <path d="M664,361.469L664,362.469L661,362.469L661,361.469L664,361.469ZM668.337,358.469L662.5,353L656.663,358.469L657.73,358.469L662.5,354L667.27,358.469L668.337,358.469Z" style="fill-opacity:0.2;"/>
            <path d="M659,363L666,363L666,364L659,364L659,363ZM661,358.469L664,358.469L664,359.469L661,359.469L661,358.469ZM656.663,358.469L659,358.469L659,359.469L656.663,359.469L656.663,358.469ZM668.337,358.469L668.337,359.469L666,359.469L666,358.469L668.337,358.469Z" style="fill:white;fill-opacity:0.101961;"/>
        </g>
        <g id="y" transform="matrix(1,0,0,1,506.5,-77)">
            <g transform="matrix(1,0,0,1,-19.5,20)">
                <circle cx="171.5" cy="291" r="10" style="fill-opacity:0.301961;"/>
            </g>
            <g transform="matrix(1,0,0,1,-19.5,18)">
                <circle cx="171.5" cy="291" r="10" style="fill:rgb(76,76,76);"/>
            </g>
            <g transform="matrix(1,0,0,1,-549.506,77.4969)">
                <path d="M700.85,236L700.85,232.19L697.383,227.006L698.831,227.006L700.604,229.718C700.931,230.225 701.236,230.732 701.518,231.239C701.788,230.769 702.116,230.239 702.5,229.65L704.242,227.006L705.629,227.006L702.04,232.19L702.04,236L700.85,236Z" style="fill:rgb(173,173,173);fill-rule:nonzero;"/>
            </g>
        </g>
        <g id="b" transform="matrix(1,0,0,1,506.5,-76)">
            <g transform="matrix(1,0,0,1,0.5,39)">
                <circle cx="171.5" cy="291" r="10" style="fill-opacity:0.301961;"/>
            </g>
            <g transform="matrix(1,0,0,1,0.5,37)">
                <circle cx="171.5" cy="291" r="10" style="fill:rgb(76,76,76);"/>
            </g>
            <g transform="matrix(1,0,0,1,-529.661,96.4969)">
                <path d="M698.267,236L698.267,227.006L701.641,227.006C702.405,227.006 703.245,227.105 703.85,227.626C705.06,228.669 704.759,230.525 703.365,231.215C705.203,231.754 705.668,234.207 704.132,235.405C703.483,235.911 702.454,236 701.696,236L698.267,236M699.457,230.785L701.402,230.785C701.904,230.785 702.493,230.791 702.935,230.502C703.627,230.049 703.624,228.866 702.975,228.373C702.522,228.028 701.774,228.067 701.255,228.067L699.457,228.067L699.457,230.785M699.457,234.939L701.696,234.939C702.196,234.939 702.753,234.931 703.193,234.65C704.012,234.128 704.042,232.773 703.26,232.202C702.783,231.855 702.094,231.847 701.537,231.847L699.457,231.847L699.457,234.939" style="fill:rgb(173,173,173);fill-rule:nonzero;"/>
            </g>
        </g>
        <g id="a" transform="matrix(1,0,0,1,508.5,-77)">
            <g transform="matrix(1,0,0,1,18.5,20)">
                <circle cx="171.5" cy="291" r="10" style="fill-opacity:0.301961;"/>
            </g>
            <g transform="matrix(1,0,0,1,18.5,18)">
                <circle cx="171.5" cy="291" r="10" style="fill:rgb(76,76,76);"/>
            </g>
            <g transform="matrix(1,0,0,1,-511.537,77.4969)">
                <path d="M697.328,236L700.782,227.006L702.064,227.006L705.745,236L704.39,236L703.34,233.276L699.58,233.276L698.592,236L697.328,236ZM699.923,232.307L702.972,232.307L702.034,229.816C701.747,229.059 701.535,228.438 701.396,227.951C701.281,228.528 701.12,229.1 700.911,229.669L699.923,232.307Z" style="fill:rgb(173,173,173);fill-rule:nonzero;"/>
            </g>
        </g>
        <g id="x" transform="matrix(1,0,0,1,507,-79)">
            <g transform="matrix(1,0,0,1,0,2)">
                <circle cx="171.5" cy="291" r="10" style="fill-opacity:0.301961;"/>
            </g>
            <circle cx="171.5" cy="291" r="10" style="fill:rgb(76,76,76);"/>
            <g transform="matrix(1,0,0,1,-530.025,59.4969)">
                <path d="M697.402,236L700.88,231.313L697.813,227.006L699.23,227.006L700.862,229.313C701.201,229.791 701.443,230.16 701.586,230.417C701.786,230.09 702.024,229.748 702.298,229.393L704.107,227.006L705.402,227.006L702.242,231.245L705.647,236L704.175,236L701.911,232.791C701.784,232.607 701.653,232.407 701.518,232.19C701.318,232.517 701.175,232.742 701.089,232.865L698.831,236L697.402,236Z" style="fill:rgb(173,173,173);fill-rule:nonzero;"/>
            </g>
        </g>
        <g id="plus" transform="matrix(1,0,0,1,448,-0.5)">
            <g transform="matrix(1,0,0,1,1,0.5)">
                <rect x="193" y="197" width="14" height="1" style="fill-opacity:0.301961;"/>
            </g>
            <g transform="matrix(0.285714,0,0,1,143.857,5.5)">
                <rect x="193" y="197" width="14" height="1" style="fill-opacity:0.301961;"/>
            </g>
            <g transform="matrix(1,0,0,1,-14,0.5)">
                <path d="M208,193L213,193L213,188L217,188L217,193L222,193L222,197L217,197L217,202L213,202L213,197L208,197L208,193Z" style="fill:rgb(76,76,76);"/>
            </g>
        </g>
        <g id="stick1" transform="matrix(1,0,0,1,507,72.5)">
            <g transform="matrix(1,0,0,1,0,10)">
                <circle cx="171.5" cy="231.5" r="22.5" style="fill-opacity:0.301961;"/>
            </g>
            <circle cx="171.5" cy="231.5" r="22.5" style="fill:rgb(76,76,76);"/>
            <path d="M171.5,214C181.159,214 189,221.841 189,231.5C189,241.159 181.159,249 171.5,249C161.841,249 154,241.159 154,231.5C154,221.841 161.841,214 171.5,214ZM171.5,216C180.055,216 187,222.945 187,231.5C187,240.055 180.055,247 171.5,247C162.945,247 156,240.055 156,231.5C156,222.945 162.945,216 171.5,216Z" style="fill-opacity:0.2;"/>
            <path d="M171.5,214C181.159,214 189,221.841 189,231.5C189,241.159 181.159,249 171.5,249C161.841,249 154,241.159 154,231.5C154,221.841 161.841,214 171.5,214ZM171.5,215C180.607,215 188,222.393 188,231.5C188,240.607 180.607,248 171.5,248C162.393,248 155,240.607 155,231.5C155,222.393 162.393,215 171.5,215Z" style="fill-opacity:0.2;"/>
            <path d="M172,254L171,254L171,249L172,249L172,254ZM194,232L189,232L189,231L194,231L194,232ZM154,232L149,232L149,231L154,231L154,232ZM172,214L171,214L171,209L172,209L172,214Z" style="fill-opacity:0.4;"/>
        </g>
    </g>
</svg>
