<svg xmlns="http://www.w3.org/2000/svg" width="400" height="100" viewBox="0 0 400 100"><path fill="#19B5FE" d="M51.542 10.534V39.25l26.88-10.375c-4.1-10.706-14.57-18.34-26.88-18.34z"/><path fill="#464646" d="M58.912 74.854c8.96-4.897 14.99-14.358 14.99-25.147 0-3.65-.753-7.137-2.01-10.374l-27.05 10.373V20.908c-2.93 0-5.86.415-8.54 1.245l-8.71-20.25C26.922.326 25.08-.42 23.488.243s-2.345 2.49-1.675 4.066l2.512 5.892C3.64 20.742-5.655 45.474 3.557 67.052c7.202 16.93 23.867 27.056 41.286 27.056 4.773 0 9.63-.83 14.32-2.406l2.764 6.39c.502 1.162 1.675 1.91 2.93 1.91.42 0 .84-.084 1.257-.25 1.59-.664 2.345-2.49 1.675-4.066L58.91 74.854zM9.42 64.644c-7.872-18.34-.085-39.42 17.418-48.632l3.685 8.63c-8.793 4.98-14.74 14.275-14.74 24.98 0 15.853 12.98 28.8 29.06 28.8 2.847 0 5.61-.415 8.207-1.162l3.768 8.714c-18.842 6.06-39.527-2.988-47.4-21.33zM120.715 38.668v28.217h-7.872V38.668h-9.966v-6.723h27.887v6.723h-10.05zM175.148 43.482c0 5.644-2.26 9.212-6.7 10.872l8.96 12.532h-9.713l-7.788-11.12h-5.443v11.12h-7.872V31.863h13.4c5.526 0 9.378.913 11.723 2.74 2.26 1.824 3.433 4.812 3.433 8.88zm-9.463 4.15c1.005-.83 1.423-2.24 1.423-4.15s-.502-3.154-1.507-3.9c-1.003-.748-2.762-1.08-5.274-1.08h-5.946v10.374h5.778c2.68.083 4.522-.332 5.527-1.244zM193.32 31.863h7.873v35.023h-7.872V31.863zM244.32 35.017c2.513 2.075 3.685 5.31 3.685 9.627 0 4.315-1.256 7.47-3.852 9.46-2.513 1.993-6.448 2.99-11.64 2.99h-4.69v9.792h-7.872V31.863h12.48c5.442 0 9.462 1.078 11.89 3.154zm-5.778 13.776c.92-1.08 1.424-2.573 1.424-4.564 0-1.993-.586-3.487-1.843-4.316-1.256-.83-3.098-1.245-5.694-1.245h-4.523v11.784h5.276c2.596-.084 4.438-.664 5.36-1.66zM264.335 31.863h7.872v35.023h-7.872V31.863zM305.872 38.668v28.217H298V38.668h-9.965v-6.723h27.886v6.723h-10.048zM346.738 38.668v28.217h-7.87V38.668h-10.05v-6.723h27.886v6.723h-9.966zM387.773 66.886H379.9V53.11l-12.226-21.247h8.542l7.62 13.03 7.62-13.03H400l-12.227 21.163v13.86z"/></svg>