<svg version="1" xmlns="http://www.w3.org/2000/svg" width="933.333" height="933.333" viewBox="0 0 700.000000 700.000000"><path d="M0 350v350h700V0H0v350zM669.6 30.3c.5.5.9 626 .5 638.2-.1 2-.7 2-318.8 1.8-175.4-.1-319.5-.2-320.3-.2-1.3-.1-1.5-36.1-1.3-318.8.1-175.4.2-319.3.2-320 .1-.6 1.1-1.3 2.4-1.5 4.2-.6 636.7-.1 637.3.5z"/><path d="M204.4 350v175.1l81.6-.4c44.8-.2 82.6-.6 84-1 1.4-.4 4.6-.9 7.3-1.1 7.2-.8 11.1-1.5 24.2-4.8 48-11.9 83.2-39.2 103.9-80.6 5.1-10.1 12.4-32.2 14.1-42.7.4-2.2.9-5.4 1.1-7 .3-1.7.7-4.1.9-5.5 1.8-10.8 2.4-37.7 1.1-53-1-12.3-1.4-15.4-3.6-25.7-9.5-44.5-32.5-78.3-68.5-100.7-7.1-4.4-18.8-10.3-25-12.6-1.1-.4-3.3-1.3-5-2-8.7-3.6-30.9-9-43-10.5-2.7-.4-6.1-.9-7.5-1.2-1.4-.4-39.2-.8-84-1l-81.6-.4V350zm149.1-111.5c3.9.4 7.9.9 9 1.1 1.1.3 3.6.7 5.5 1 18.6 3.1 37.5 12.4 50.3 24.8 12.1 11.9 22.1 31.9 25.2 50.6.3 1.9.8 4.2 1 5 .2.8.7 5.1 1.1 9.5 1.9 21.4.6 42.5-3.7 60-5.4 22-13.8 35.7-30.9 50.5-9.6 8.4-33.4 17.8-49.5 19.5-12.8 1.5-22.1 1.8-47.8 1.9-17 .1-31.1-.2-31.3-.6-.6-.9-.5-222.8 0-223.7.6-.9 62.1-.6 71.1.4z"/></svg>