<svg viewBox="0 0 392 119" xmlns="http://www.w3.org/2000/svg" fill-rule="evenodd" clip-rule="evenodd" stroke-linejoin="round" stroke-miterlimit="1.414"><g fill="#00BC66"><path d="M22.125 49.423C9.905 49.423 0 59.733 0 72.45c0 20.817 24.676 30.002 17.7 46.14 11.322-7.824 26.55-30.066 26.55-46.14 0-12.717-9.905-23.027-22.125-23.027zm0 28.457c-4.888 0-8.85-4.023-8.85-8.986 0-4.963 3.962-8.986 8.85-8.986s8.85 4.023 8.85 8.986c0 4.963-3.962 8.986-8.85 8.986z"/><path d="M36.875 50.922L33.925 0h-23.6l-2.95 50.922s4.894-4.494 14.75-4.494c9.858 0 14.75 4.494 14.75 4.494z"/></g><g fill="#00BC66"><path d="M22.195 49.58C9.938 49.58 0 59.924 0 72.68c0 20.883 24.754 30.098 17.757 46.287 11.356-7.85 26.634-30.162 26.634-46.286 0-12.757-9.936-23.1-22.195-23.1zm0 28.547c-4.903 0-8.877-4.036-8.877-9.015 0-4.98 3.975-9.015 8.878-9.015 4.903 0 8.878 4.036 8.878 9.015 0 4.98-3.975 9.015-8.878 9.015z"/><path d="M36.993 51.083L34.033 0H10.358l-2.96 51.083s4.91-4.507 14.798-4.507c9.89 0 14.797 4.507 14.797 4.507z"/></g><g fill="#333" fill-rule="nonzero"><path d="M78.248 49.206c-1.23-2.27-3.137-3.425-5.714-3.463-1.5 0-2.75.46-3.75 1.386-1 .92-1.483 2.017-1.443 3.288 0 .923.452 1.75 1.357 2.48.903.733 2.337 1.25 4.3 1.558 4.655.808 8.03 2.377 10.127 4.705 2.098 2.33 3.146 4.993 3.146 7.995 0 3.31-1.25 6.243-3.75 8.8-2.503 2.56-5.62 3.837-9.35 3.837-5.926-.077-10.33-3.076-13.216-9.003l5.828-2.943c1.81 3.73 4.31 5.597 7.503 5.597 1.847.04 3.442-.605 4.79-1.933 1.347-1.326 2.02-2.874 2.02-4.645.038-1.19-.482-2.375-1.557-3.55-1.08-1.172-2.983-2.01-5.714-2.51-3.693-.54-6.52-1.664-8.484-3.377-1.963-1.71-2.943-3.76-2.943-6.146-.078-2.847.923-5.472 3-7.877 2.08-2.405 4.83-3.607 8.254-3.607 4.81.115 8.39 2.386 10.734 6.81l-5.136 2.598zM116.914 79.1h-5.426L96.715 52.9v26.2h-6.118V40.433h6.118l14.082 24.7v-24.7h6.118V79.1zM152.98 79.1h-6.463l-3.808-10.85h-12.063L126.84 79.1h-6.522l13.274-38.667h6.118L152.98 79.1zm-12.464-17.083l-3.808-10.85-3.924 10.85h7.732zM182.355 79.1H156.04v-5.54l17.947-27.01H157.54v-6.117h24.815v5.598L164.12 72.87h18.235V79.1zM212.654 79.1H186.34v-5.54l17.946-27.01H187.84v-6.117h24.814v5.598L194.418 72.87h18.236V79.1zM249.243 40.433l-13.388 21.873V79.1h-6.118V62.306l-13.563-21.873h7.33l9.233 14.947 9.35-14.947h7.156zM298.3 79.1h-6.118V56.707L283.236 79.1l-8.947-22.393V79.1h-6.118V40.433h6.117l8.946 21.7 8.945-21.7h6.118V79.1zM334.77 79.1h-6.463l-3.81-10.85h-12.062l-3.807 10.85h-6.52l13.272-38.667h6.115L334.77 79.1zm-12.467-17.083l-3.81-10.85-3.92 10.85h7.73zM351.16 62.306h-7.33V79.1h-6.117V40.433h12.756c2.845 0 5.136.413 6.866 1.24 1.73.83 3.145 2.147 4.24 3.954 1.098 1.81 1.646 3.693 1.646 5.656 0 2.04-.443 3.886-1.328 5.54-.885 1.656-2.223 2.992-4.012 4.012-1.786 1.02-4.028 1.51-6.722 1.47zm5.887-10.91c0-1.5-.453-2.654-1.355-3.46-.904-.808-1.914-1.23-3.03-1.27h-8.946v9.522h9.176c1.154 0 2.137-.423 2.945-1.27.806-.845 1.21-2.02 1.21-3.52zM383.246 49.206c-1.23-2.27-3.137-3.425-5.713-3.463-1.5 0-2.75.46-3.75 1.386-1.002.92-1.484 2.017-1.443 3.288 0 .923.45 1.75 1.355 2.48.904.733 2.338 1.25 4.3 1.558 4.655.808 8.03 2.377 10.128 4.705 2.098 2.33 3.145 4.993 3.145 7.995 0 3.31-1.25 6.243-3.75 8.8-2.502 2.56-5.62 3.837-9.35 3.837-5.926-.077-10.33-3.076-13.215-9.003l5.828-2.943c1.81 3.73 4.31 5.597 7.503 5.597 1.848.04 3.443-.605 4.79-1.933 1.347-1.326 2.02-2.874 2.02-4.645.037-1.19-.482-2.375-1.56-3.55-1.077-1.172-2.98-2.01-5.712-2.51-3.692-.54-6.52-1.664-8.483-3.377-1.963-1.71-2.943-3.76-2.943-6.146-.078-2.847.924-5.472 3-7.877 2.08-2.405 4.83-3.607 8.254-3.607 4.81.115 8.39 2.386 10.734 6.81l-5.136 2.598z"/></g></svg>