<svg viewBox="0 0 450 150" xmlns="http://www.w3.org/2000/svg" fill-rule="evenodd" clip-rule="evenodd" stroke-linejoin="round" stroke-miterlimit="1.414"><path d="M71.1 77.9l.7 2 6.2-6.1-.8-2.1-6.1 6.2z" fill="#d96b28" fill-opacity=".1" fill-rule="nonzero"/><path d="M77.8 108.6l-.2-2c6.7-.6 12.9-3.3 18-7.9l1.3 1.5c-5.3 4.8-11.9 7.7-19.1 8.4zm29.6-27.2l-2-.4c.3-1.8.5-3.7.5-5.5h2c0 2-.1 4-.5 5.9zm-65.3-.1c-.3-1.9-.5-3.8-.5-5.8 0-11.2 5.6-21.5 14.9-27.7l1.1 1.7c-8.8 5.8-14 15.5-14 26 0 1.8.2 3.6.5 5.4l-2 .4zm36.1-6.8h1.2l2.7 6.7H80l-2.3-5.6h-7.5l-.7-2h8.4l.3.9zM60 48.1l-.9-1.8c2.1-1.1 4.4-2 6.7-2.7l.5 1.9c-2.1.6-4.3 1.5-6.3 2.6z" fill="#d96b28" fill-opacity=".1"/><path d="M30.2 118.7l1.5 1.4 40.1-40.2-.7-2-40.9 40.8zM117.9 31L77.2 71.7l.8 2.1 41.3-41.3-1.4-1.5z" fill="#d96b28" fill-opacity=".25"/><path d="M74.8 108.7c-16.1 0-29.9-11.5-32.7-27.4l2-.3c2.6 14.9 15.5 25.7 30.7 25.7 1 0 1.9 0 2.9-.1l.2 2c-1.1.1-2.1.1-3.1.1zm22.1-8.5l-1.3-1.5c5.1-4.6 8.6-10.9 9.9-17.7l2 .4c-1.4 7.2-5.1 13.9-10.6 18.8zm9-25.5c-.5-17-14.2-30.3-31.2-30.3-2.9 0-5.7.4-8.4 1.2l-.5-1.9c2.9-.8 5.9-1.2 9-1.2 18.1 0 32.7 14.2 33.2 32.2h-2.1zM57.6 49.5l-1.1-1.7c.9-.6 1.7-1.1 2.6-1.6L60 48l-2.4 1.5z" fill="#d96b28" fill-opacity=".25"/><path d="M79 73.7h8.7V69h8.4v4.7h16.7v8.4h-8.6c-1.1 3.8-3.3 9.9-7.6 16.4l12.4 12.6-6 5.9-11.4-11.7c-3.9 4.3-8.3 8-13.2 11l-1.7 1-4.4-7.2 1.7-1c4.3-2.7 8.2-6 11.6-9.9l-8.8-9 6-5.9 7.8 8c2.3-3.9 3.9-7.5 4.8-10.2H71.6l-5.1-13.2H51l-4.8 13.2H35.8l18.3-47.7H63l16 39.3zm15.1 2V71h-4.4v4.7h-12l-16-39.2h-6.2L38.7 80.1h6.1l4.8-13.2h18.2l5.1 13.2h25.2c-.9 3.3-3 9.2-7.2 15.4l-8.2-8.3-3.2 3.1 8.7 8.8c-3.4 4.1-7.7 8.3-13.3 11.7l2.3 3.8c5.9-3.7 10.5-8 14.1-12.3l11.7 11.9 3.2-3.1L94 98.7c5.5-7.9 7.8-15.3 8.6-18.6h8.2v-4.4H94.1zM51.3 62.2h14.8l-7.5-20.8-7.3 20.8zm11.9-2l-4.5-12.5-4.5 12.5h9z" fill="#d96b28"/><path d="M29.1 117.5c-1.9 0-3.5 1.6-3.5 3.5s1.6 3.5 3.5 3.5 3.5-1.6 3.5-3.5-1.6-3.5-3.5-3.5zm0 2c.8 0 1.5.7 1.5 1.5s-.7 1.5-1.5 1.5-1.5-.7-1.5-1.5.7-1.5 1.5-1.5zm91.3-92.9c-1.9 0-3.5 1.6-3.5 3.5s1.6 3.5 3.5 3.5 3.5-1.6 3.5-3.5c0-2-1.6-3.5-3.5-3.5zm0 2c.8 0 1.5.7 1.5 1.5s-.7 1.5-1.5 1.5-1.5-.7-1.5-1.5c0-.9.7-1.5 1.5-1.5z" fill="#d96b28" fill-opacity=".5"/><path d="M270.1 74.5v2h-22.8v-2h22.8zm-37.8 0v2h-22.8v-2h22.8z" fill="#5eac2f" fill-opacity=".1"/><path d="M270.1 74.5h16v2h-16v-2zm-37.8 0h15v2h-15v-2zm-22.8 0v2h-47.3v-2h47.3z" fill="#5eac2f" fill-opacity=".25"/><path d="M160.7 72c-1.9 0-3.5 1.6-3.5 3.5s1.6 3.5 3.5 3.5 3.5-1.6 3.5-3.5-1.6-3.5-3.5-3.5zm126.9 0c-1.9 0-3.5 1.6-3.5 3.5s1.6 3.5 3.5 3.5 3.5-1.6 3.5-3.5-1.5-3.5-3.5-3.5zm-126.9 2c.8 0 1.5.7 1.5 1.5s-.7 1.5-1.5 1.5-1.5-.7-1.5-1.5.7-1.5 1.5-1.5zm126.9 0c.8 0 1.5.7 1.5 1.5s-.7 1.5-1.5 1.5-1.5-.7-1.5-1.5.7-1.5 1.5-1.5z" fill="#5eac2f" fill-opacity=".5"/><path d="M189.6 119.8L176.7 107 208 75.5l-31.3-31.4 12.9-12.8 44.1 44.3-44.1 44.2zm37.9 0L214.6 107l31.3-31.5-31.3-31.4 12.9-12.8 44.1 44.3-44.1 44.2zM179.6 107l10.1 10L231 75.5l-41.4-41.4-10.1 10 31.3 31.5-31.2 31.4zm37.8 0l10.1 10 41.3-41.5-41.3-41.4-10.1 10 31.3 31.4-31.3 31.5z" fill="#5eac2f"/><path d="M374.5 82.2h-5v-2c3.2.1 6.8.1 10 0v2h-5z" fill="#5eac2f" fill-opacity=".1" fill-rule="nonzero"/><path d="M333.9 76.2h2v37h-2v-37zm79.2 0h2v37h-2v-37zm-38.6-.5c-39.5 0-40.6-8.5-40.6-9.4V48.7h2v17.6s1.4 7.4 38.6 7.4 38.6-7.4 38.6-7.5V48.7h2v17.6c0 1-1.1 9.4-40.6 9.4z" fill="#5eac2f" fill-opacity=".25"/><path d="M416.5 48.2h-28v-7.6c0-1.7-1.4-3-3.1-3h-21.8c-1.7 0-3.1 1.3-3.1 3v7.6h-28c-2.8 0-5 2.3-5 5v55.9c0 2.8 2.3 5 5 5h83.9c2.8 0 5-2.3 5-5V53.2c.1-2.8-2.2-5-4.9-5zm-54-7.6c0-.5.5-1 1.1-1h21.8c.6 0 1.1.4 1.1 1v7.6h-4v-5h-16v5h-4v-7.6zm8 46.1v-11h8v11h-8zm8 2v4.5h-8v-4.5h8zm-8-15V50.2h8v23.6h-8v-.1zm-2-25.5v-3h12v3h-12zm-36 2h37v23.6h-1v6.4c-32.4-.8-38.3-8.2-39-9.2V53.2c0-1.7 1.3-3 3-3zm87 59c0 1.7-1.4 3-3 3h-84c-1.7 0-3-1.4-3-3V73.8c3.5 2.9 13.2 7.7 39 8.3v6.6h1v5.5h10v-5.5h1v-6.6c25.8-.6 35.5-5.4 39-8.3v35.4zm0-38.3c-.7 1.1-6.7 8.4-39 9.2v-6.4h-1V50.2h37c1.7 0 3 1.4 3 3v17.7z" fill="#5eac2f" fill-rule="nonzero"/></svg>