<svg viewBox="0 0 450 150" xmlns="http://www.w3.org/2000/svg" fill-rule="evenodd" clip-rule="evenodd" stroke-linejoin="round" stroke-miterlimit="1.414"><path d="M110.5 69.3l-.1-2-17.8.9-7.1-26.8-23.7 18.1-10.5-8.6-1.3 1.5 10.4 8.5-18.5 23.3 1.6 1.2L61.3 63l7.3 28.5-3.3 19.7 2 .3 3.3-19.6 20.7-20.6 5.9 28.5 2-.4-6-29.2 17.3-.9zm-20-1.5L64 60.4l20.4-15.6 6.1 23zm-27.3-5.6L90 69.8 70.1 89.5l-6.9-27.3z" fill="#c84040" fill-opacity=".1" fill-rule="nonzero"/><path d="M120.412 120.606L99.426 99.448l-1.42 1.41 20.986 21.157 1.42-1.41zM50.567 50.278L30 29.548l-1.418 1.41 20.565 20.73 1.42-1.41z" fill="#c84040" fill-opacity=".25"/><path d="M99.342 99.462l-48.814-49.19-1.42 1.41 48.815 49.19 1.42-1.41z" fill="#c84040" fill-opacity=".12"/><path d="M85.5 40.9L48.9 50l-8.4 35.3 25.2 28.4 34-12.6 13.1-33.4-27.3-26.8zM56.3 86.8l28.1-27.7 9 37.8-37.1-10.1zm35.5 11.7l-25 11.5-10.6-21.2 35.6 9.7zM53.1 51.1l30.8-7.7v12.7l-30.8-5zm29.7 6.7L55.1 85.1l-3.4-32.2 31.1 4.9zM53.6 88.2l10.1 20.4-20-22.5 9.9 2.1zm41.1 11.2l2 .8-18.5 6.8 16.5-7.6zm-8.4-40.5l22.8 9.9L95 95.5l-8.7-36.6zm-.4-2.4V44.1l22.5 22.3-22.5-9.9zm-36-1.9L53.2 86l-10.3-2.2 7-29.2zm48.6 44.1l-2.5-.9 11.1-21.1-8.6 22z" fill="#c84040" fill-rule="nonzero"/><path d="M121.2 119.3c-1.9 0-3.5 1.6-3.5 3.5s1.6 3.5 3.5 3.5 3.5-1.6 3.5-3.5c0-2-1.6-3.5-3.5-3.5zm0 2c.8 0 1.5.7 1.5 1.5s-.7 1.5-1.5 1.5-1.5-.7-1.5-1.5c0-.9.6-1.5 1.5-1.5zM27.7 25.2c-1.9 0-3.5 1.6-3.5 3.5s1.6 3.5 3.5 3.5 3.5-1.6 3.5-3.5-1.5-3.5-3.5-3.5zm0 2c.8 0 1.5.7 1.5 1.5s-.7 1.5-1.5 1.5-1.5-.7-1.5-1.5.7-1.5 1.5-1.5z" fill="#c84040" fill-opacity=".5"/><path d="M220.1 76.2c-1.6 0-3.3-.2-4.9-.5l.4-2c1.4.3 2.9.5 4.4.5 4.5 0 8.7-1.4 12.3-4l1.2 1.6c-3.8 2.9-8.5 4.4-13.4 4.4z" fill="#c84040" fill-opacity=".05" fill-rule="nonzero"/><path d="M220.1 64.6c-1.8 0-3.5-.4-5.1-1.2l.9-1.8c2.5 1.3 5.6 1.3 8.1.1l.9 1.8c-1.5.8-3.1 1.1-4.8 1.1z" fill="#c84040" fill-opacity=".1" fill-rule="nonzero"/><path d="M215.2 75.7c-10.4-2.3-18-11.6-18-22.3 0-12.6 10.2-22.8 22.8-22.8 12.6 0 22.8 10.2 22.8 22.8 0 7.2-3.5 14.1-9.3 18.4l-1.2-1.6c5.3-3.9 8.5-10.2 8.5-16.8 0-11.5-9.3-20.8-20.8-20.8s-20.8 9.3-20.8 20.8c0 9.7 6.9 18.3 16.4 20.3l-.4 2z" fill="#c84040" fill-opacity=".25" fill-rule="nonzero"/><path d="M224.9 63.5l-.9-1.8c3.2-1.5 5.2-4.8 5.2-8.3 0-5.1-4.1-9.2-9.2-9.2s-9.2 4.1-9.2 9.2c0 3.5 1.9 6.6 5 8.2l-.8 1.8c-3.7-1.9-6.1-5.7-6.1-9.9 0-6.2 5-11.2 11.2-11.2 6.2 0 11.2 5 11.2 11.2 0 4.2-2.5 8.2-6.4 10z" fill="#c84040" fill-opacity=".75" fill-rule="nonzero"/><path d="M246.1 74.5h-3.5c-.5-2.2-2.8-4-5.2-4h-3.5c-.5-2.2-2.8-4-5.2-4h-3.2V54c0-2.9-2.5-5.4-5.5-5.4s-5.5 2.5-5.5 5.4v37.8l-3.3-3.4c-2.1-2.1-5.5-2.1-7.6 0-2.1 2.1-2.1 5.5 0 7.6 1.7 1.7 5.8 7.1 10.2 14.8 3.7 6.5 10.7 10.3 19.2 10.3 8.9 0 18.4-6.2 18.4-16.3V80.3c.1-3.1-2.4-5.8-5.3-5.8zm3.4 30.3c0 8.8-8.5 14.3-16.4 14.3-7.8 0-14.2-3.4-17.5-9.3-4.4-7.9-8.7-13.5-10.5-15.3-1.3-1.3-1.3-3.4 0-4.8 1.3-1.3 3.6-1.1 4.7 0l6.7 6.9V54c0-1.8 1.6-3.4 3.5-3.4s3.5 1.5 3.5 3.4v29.5h2v-15h3.2c1.9 0 3.4 1.6 3.4 3v12h2v-11h3.4c1.9 0 3.4 1.6 3.4 3v11h2v-10h3.4c1.9 0 3.3 2 3.3 3.8v24.5h-.1z" fill="#c84040" fill-rule="nonzero"/><path d="M313.5 76.3l-1.7-1s.6-1 1.8-2.6l1.6 1.2c-1.1 1.5-1.6 2.4-1.7 2.4z" fill="#c84040" fill-opacity=".25" fill-rule="nonzero"/><path d="M382.1 81.2l-1.3 1.6c1.1.9 2.2 1.7 3.3 2.5l1.9-1.1c-1.3-1-2.6-1.9-3.9-3zm-5.9-2.5c-.7-.7-3.7-3.6-4.4-4.3l1.4-1.5c.7.7 3.7 3.6 4.4 4.3l-1.4 1.5zm-8.9-8.3c-1.6-1.3-3.2-2.5-4.8-3.6l1.1-1.7c1.6 1.1 3.3 2.3 5 3.7l-1.3 1.6zm-9.1-8.4c-1-.5-2-1-3-1.4v2.2c.7.3 1.4.6 2.1 1l.9-1.8z" fill="#c84040" fill-opacity=".1"/><path d="M403 93.6l.3-2c1.8.4 5.5.4 5.9.3l.1 2c-.4.1-4.6.1-6.3-.3zm12.5-.5l-.5-1.9c1.9-.5 3.7-1.2 5.5-2.1l.9 1.8c-1.9.9-3.9 1.7-5.9 2.2zm-18.6-1c-1.9-.7-3.8-1.5-5.7-2.5l.9-1.8c1.8.9 3.7 1.7 5.5 2.4l-.7 1.9zm29.9-4.5l-1.2-1.6c1.6-1.1 3.1-2.4 4.5-3.9l1.4 1.4c-1.4 1.5-3 2.9-4.7 4.1zm-42.7-2.4c.6.4 1.2.8 1.7 1.2l1.1-1.7-.9-.6-1.9 1.1zm51.6-6.3l-1.6-1.2c1.1-1.4 1.6-2.4 1.6-2.4l1.7 1c.1.1-.5 1-1.7 2.6zm-116.5-9.5l-1.4-1.4c1.5-1.5 3.1-2.9 4.8-4.1l1.2 1.6c-1.6 1.2-3.2 2.5-4.6 3.9zm33.3-9.9l-.7 1.9c1.1.4 2.3.9 3.4 1.4v-2.2c-.9-.4-1.8-.8-2.7-1.1zm-23.7 3l-.9-1.8c1.9-.9 3.9-1.7 5.9-2.2l.5 1.9c-1.8.5-3.7 1.2-5.5 2.1zm17.3-2.6c-1.8-.4-5.2-.4-5.9-.4l-.1-2c.7-.1 4.7 0 6.3.4l-.3 2z" fill="#c84040" fill-opacity=".25"/><path d="M311.2 73.9c-1.9 0-3.5 1.6-3.5 3.5s1.6 3.5 3.5 3.5 3.5-1.6 3.5-3.5c0-2-1.6-3.5-3.5-3.5zm0 2c.8 0 1.5.7 1.5 1.5s-.7 1.5-1.5 1.5-1.5-.7-1.5-1.5c0-.9.7-1.5 1.5-1.5zm126.9-6.2c-1.9 0-3.5 1.6-3.5 3.5s1.6 3.5 3.5 3.5 3.5-1.6 3.5-3.5-1.5-3.5-3.5-3.5zm0 2c.8 0 1.5.7 1.5 1.5s-.7 1.5-1.5 1.5-1.5-.7-1.5-1.5.7-1.5 1.5-1.5z" fill="#c84040" fill-opacity=".5"/><path d="M356.2 51.3l42.3 24.4-42.3 24.4V51.3m-2-3.5v55.8l48.3-27.9-48.3-27.9z" fill="#c84040" fill-rule="nonzero"/></svg>