<svg viewBox="0 0 450 150" xmlns="http://www.w3.org/2000/svg" fill-rule="evenodd" clip-rule="evenodd" stroke-linejoin="round" stroke-miterlimit="1.414"><path d="M70.7 75.9c-1.6 0-3.3-.2-4.9-.5l.4-2c1.4.3 2.9.5 4.4.5 4.5 0 8.7-1.4 12.3-4l1.2 1.6c-3.8 2.9-8.5 4.4-13.4 4.4z" fill="#008e5a" fill-opacity=".05" fill-rule="nonzero"/><path d="M70.7 64.3c-1.8 0-3.5-.4-5.1-1.2l.9-1.8c2.5 1.3 5.6 1.3 8.1.1l.9 1.8c-1.5.7-3.1 1.1-4.8 1.1z" fill="#008e5a" fill-opacity=".1" fill-rule="nonzero"/><path d="M65.9 75.4c-10.4-2.3-18-11.6-18-22.3 0-12.6 10.2-22.8 22.8-22.8 12.6 0 22.8 10.2 22.8 22.8 0 7.2-3.5 14.1-9.3 18.4L83 69.9c5.3-3.9 8.5-10.2 8.5-16.8 0-11.5-9.3-20.8-20.8-20.8s-20.8 9.3-20.8 20.8c0 9.7 6.9 18.3 16.4 20.3l-.4 2z" fill="#008e5a" fill-opacity=".25" fill-rule="nonzero"/><path d="M75.5 63.2l-.9-1.8c3.2-1.5 5.2-4.8 5.2-8.3 0-5.1-4.1-9.2-9.2-9.2s-9.2 4.1-9.2 9.2c0 3.5 1.9 6.6 5 8.2l-.9 1.8c-3.7-1.9-6.1-5.7-6.1-9.9 0-6.2 5-11.2 11.2-11.2 6.2 0 11.2 5 11.2 11.2.1 4.2-2.4 8.2-6.3 10z" fill="#008e5a" fill-opacity=".75" fill-rule="nonzero"/><path d="M96.8 74.2h-3.5c-.5-2.2-2.8-4-5.2-4h-3.5c-.5-2.2-2.8-4-5.2-4h-3.2V53.7c0-2.9-2.5-5.4-5.5-5.4s-5.5 2.5-5.5 5.4v37.8l-3.3-3.4c-2.1-2.1-5.5-2.1-7.6 0-2.1 2.1-2.1 5.5 0 7.6 1.7 1.7 5.8 7.1 10.2 14.8 3.7 6.5 10.7 10.3 19.2 10.3 8.9 0 18.4-6.2 18.4-16.3V80c0-3.1-2.5-5.8-5.3-5.8zm3.3 30.3c0 8.8-8.5 14.3-16.4 14.3-7.8 0-14.2-3.4-17.5-9.3-4.4-7.9-8.7-13.5-10.5-15.3-1.3-1.3-1.3-3.4 0-4.8 1.3-1.3 3.6-1.1 4.7 0l6.7 6.9V53.7c0-1.8 1.6-3.4 3.5-3.4s3.5 1.5 3.5 3.4v29.5h2v-15h3.2c1.9 0 3.4 1.6 3.4 3v12h2v-11H88c1.9 0 3.4 1.6 3.4 3v11h2v-10h3.4c1.9 0 3.3 2 3.3 3.8v24.5z" fill="#008e5a" fill-rule="nonzero"/><path d="M224.2 96.2l2.4.2 4.1 25.5 7.9-8 10 5.1-4.6-28.3 1.9-.3 5.3 32.1-12.2-6.2-9.6 9.8-4.02-24.54-3.98 24.54-9.6-9.8-12.3 6.2 5.3-32.1 2 .3-4.6 28.3 10-5.1 7.8 8 4.2-25.7zm-7.1-4.2c-1.2-.3-2.6-.6-3.9-.8l-.8 1.9c1.4.2 2.9.4 4.2.8 1.3.3 2.7.9 3.9 1.4l.3-2c-1.2-.5-2.5-1-3.7-1.3zm16.7 0c-1.2.3-2.5.8-3.8 1.3l.3 2c1.3-.5 2.7-1.1 4-1.4 1.3-.3 2.7-.6 4.1-.8l-.8-1.9c-1.3.2-2.6.4-3.8.8zm-31.2-8.4c-.9-.9-2-1.8-3-2.6l-1.6 1.3c1.1.9 2.3 1.8 3.3 2.8.9.9 1.9 2.1 2.7 3.2l1.3-1.6c-1-1.1-1.8-2.2-2.7-3.1zm45.6 0c-.9.9-1.8 2-2.6 3l1.3 1.6c.9-1.1 1.8-2.3 2.8-3.3.9-.9 2.1-1.9 3.2-2.7l-1.6-1.3c-1.2.9-2.2 1.8-3.1 2.7zm-54-14.4c-.3-1.2-.8-2.5-1.3-3.8l-2 .3c.5 1.3 1.1 2.7 1.4 4 .3 1.3.6 2.7.8 4.1l1.9-.8c-.2-1.3-.5-2.6-.8-3.8zm62.3-.1c-.3 1.2-.6 2.6-.8 3.9l1.9.8c.2-1.4.4-2.9.8-4.2.3-1.3.9-2.7 1.4-3.9l-2-.3c-.5 1.2-.9 2.5-1.3 3.7zm-62.3-16.6c.3-1.2.6-2.6.8-3.9l-2-.8c-.2 1.4-.4 2.9-.8 4.2-.3 1.3-.9 2.7-1.4 3.9l2 .3c.6-1.2 1.1-2.5 1.4-3.7zm62.3-.1c.3 1.2.8 2.5 1.3 3.8l2-.3c-.5-1.3-1.1-2.7-1.4-4-.3-1.3-.6-2.7-.8-4.1l-1.9.8c.3 1.3.5 2.6.8 3.8zm-54-14.4c.9-.9 1.8-2 2.6-3l-1.3-1.6c-.9 1.1-1.8 2.3-2.8 3.3-.9.9-2.1 1.9-3.2 2.7l1.6 1.3c1.2-.9 2.2-1.8 3.1-2.7zm45.7 0c.9.9 2 1.8 3 2.6l1.6-1.3c-1.1-.9-2.3-1.8-3.3-2.8-.9-.9-1.9-2.1-2.7-3.2l-1.2 1.7c.8 1 1.7 2.1 2.6 3zM217 29.7c1.2-.3 2.5-.8 3.8-1.3l-.3-2c-1.3.5-2.7 1.1-4 1.4-1.3.3-2.7.6-4.1.8l.8 1.9c1.2-.3 2.6-.5 3.8-.8zm16.7-.1c1.2.3 2.6.6 3.9.8l.8-1.9c-1.4-.2-2.9-.4-4.2-.8-1.3-.3-2.7-.9-3.9-1.4l-.3 2c1.2.5 2.5 1 3.7 1.3z" fill="#008e5a" fill-opacity=".75"/><path d="M261.2 55.5l-.3-.7-8 1.1c-.3-1.6-.7-3.1-1.2-4.6l7.4-3-.1-.8c-.5-3.6-2.5-6.9-5.3-9.2l-.6-.5-6.3 5c-1-1.2-2.2-2.4-3.4-3.4l5-6.3-.5-.6c-2.3-2.8-5.6-4.7-9.2-5.3l-.8-.2-3 7.4c-1.5-.5-3-1-4.6-1.2l1.1-8-.7-.2c-3.4-1.3-7.2-1.3-10.6 0l-.7.3 1.1 8c-1.6.3-3.1.7-4.6 1.2l-3-7.4h-.9c-3.6.6-6.9 2.5-9.2 5.3l-.4.6 5 6.3c-1.2 1-2.4 2.2-3.4 3.4l-6.3-5-.7.6c-2.8 2.3-4.8 5.6-5.3 9.2l-.1.8 7.4 3c-.5 1.5-1 3-1.2 4.6l-8-1.1-.3.7c-1.3 3.4-1.3 7.2 0 10.6l.3.7 8-1.1c.3 1.6.7 3.1 1.2 4.6l-7.4 3 .1.8c.5 3.6 2.5 6.9 5.3 9.2l.6.5 6.3-5c1 1.2 2.2 2.4 3.4 3.4l-5 6.3.5.6c2.3 2.8 5.6 4.7 9.2 5.3l.8.1 3-7.4c1.5.5 3 1 4.6 1.2l-1.1 8 .7.3c3.4 1.3 7.2 1.3 10.6 0l.7-.3-1.1-8c1.6-.3 3.1-.7 4.6-1.2l3 7.4.8-.1c3.6-.6 6.9-2.5 9.2-5.3l.5-.6-5-6.3c1.2-1 2.4-2.2 3.4-3.4l6.3 5 .6-.5c2.8-2.3 4.8-5.6 5.3-9.2l.1-.8-7.4-3c.5-1.5 1-3 1.2-4.6l8 1.1.3-.7c1.4-3.4 1.4-7.2.1-10.6zM248 44.3l5-4c1.9 1.8 3.2 4 3.8 6.6l-5.9 2.4c-.7-1.7-1.7-3.4-2.9-5zm-11.2-9.1l2.4-5.9c2.6.6 4.8 1.9 6.6 3.8l-4 5c-1.5-1.1-3.3-2.1-5-2.9zm-15.3-8.6c2.6-.8 5.1-.8 7.7 0l-.9 6.3c-2-.2-3.9-.2-5.9 0l-.9-6.3zm-12.6 11.5l-4-5c1.8-1.9 4-3.2 6.6-3.8l2.4 5.9c-1.7.8-3.4 1.8-5 2.9zm-9.1 11.3l-6-2.4c.6-2.6 1.9-4.8 3.8-6.6l5 4c-1 1.5-2 3.2-2.8 5zm-8.6 15.2c-.8-2.6-.8-5.1 0-7.7l6.3.9c-.2 2-.2 3.9 0 5.9l-6.3.9zm11.5 12.7l-5 4c-1.9-1.8-3.2-4-3.8-6.6l5.9-2.4c.8 1.7 1.8 3.4 2.9 5zm11.3 9.1l-2.4 5.9c-2.6-.6-4.8-1.9-6.6-3.8l4-5c1.5 1.1 3.2 2.1 5 2.9zm15.2 8.6c-2.6.8-5.1.8-7.7 0l.9-6.3c2 .2 3.9.2 5.9 0l.9 6.3zm12.6-11.5l4 5c-1.8 1.9-4 3.2-6.6 3.8l-2.4-5.9c1.7-.8 3.5-1.8 5-2.9zm-.6-2c-3.4 2.6-7.5 4.4-11.8 5h-.3c-2.5.4-5 .4-7.5 0h-.3c-11-1.7-20-10.7-21.7-21.7v-.3c-.4-2.5-.4-5 0-7.5v-.3c1.7-11 10.7-20 21.7-21.7h.3c2.5-.4 5-.4 7.5 0h.3c11 1.7 20 10.7 21.7 21.7v.3c.4 2.5.4 5 0 7.5v.3c-1 6.6-4.7 12.6-9.9 16.7-.4.2 1.8-1.4 0 0zm9.8-9.3l5.9 2.4c-.6 2.6-1.9 4.8-3.8 6.6l-5-4c1.1-1.5 2.1-3.2 2.9-5zm8.6-7.6l-6.3-.9c.2-2 .2-3.9 0-5.9l6.3-.9c.8 2.6.8 5.2 0 7.7z" fill="#008e5a" fill-rule="nonzero"/><path d="M225.4 79.7c-10.4 0-18.9-8.5-18.9-18.9 0-10.4 8.5-18.9 18.9-18.9 10.4 0 18.9 8.5 18.9 18.9 0 10.4-8.5 18.9-18.9 18.9zm0-35.8c-9.3 0-16.9 7.6-16.9 16.9 0 9.3 7.5 16.9 16.9 16.9 9.4 0 16.9-7.6 16.9-16.9 0-9.3-7.6-16.9-16.9-16.9z" fill="#008e5a" fill-opacity=".25" fill-rule="nonzero"/><path d="M395.5 65l19.4-11.2-1-1.7-19.3 11.1-20.1-11.7V29.6h-2v21.9l-20.1 11.7-1.4-.8-1 1.7 1.5.9v3.1h2v-2l18 10.4-6.5 3.8 1 1.7 6.5-3.8v21l-3.1-1.8-1 1.7 4.1 2.4v7h2v-7l20.1-11.7 2.3 1.3 1-1.7-2.4-1.4V65zm-2 21.9l-18-10.4 18-10.4v20.8zm-.9-22.6l-18.1 10.5v-21l18.1 10.5zm-20.1-10.5v21l-18.1-10.5 18.1-10.5zm2 45.4v-21l18.1 10.5-18.1 10.5z" fill="#49589b" fill-opacity=".1" fill-rule="nonzero"/><path d="M415.5 54v45.6L402.3 92l-1 1.7 13.1 7.6-39.9 23v-11.1h-2v11.1l-40-23 19.9-11.4 15.9 9.2 1-1.7-14.9-8.7 6.9-4-1-1.8-6.8 4V68.1h-2v20l-20 11.5V53.4l14.2 8.2 1-1.7-14.2-8.2 39.4-22.6-.9-1.8-41.5 23.9v50.6l44 25.3 44-25.3V54h-2z" fill="#49589b" fill-opacity=".25" fill-rule="nonzero"/><path d="M349.115 65.2c-.262.065-.535.1-.815.1-1.9 0-3.5-1.6-3.5-3.5s1.6-3.5 3.5-3.5c.4 0 .7.1 1 .2L370.6 29c-.4-.5-.6-1.2-.6-1.9 0-2 1.5-3.5 3.4-3.5s3.5 1.6 3.5 3.5c0 .3 0 .6-.1.9l37 21.2c.7-.6 1.5-1 2.5-1 2 0 3.4 1.6 3.4 3.5s-1.6 3.5-3.5 3.5h-.3l-14 33.3c.8.6 1.4 1.7 1.4 2.8 0 1.9-1.6 3.5-3.5 3.5-.8 0-1.5-.3-2.1-.7l-20.946 15.733c.16.395.246.823.246 1.267 0 1.9-1.6 3.5-3.5 3.5s-3.5-1.6-3.5-3.5c0-1.1.537-2.1 1.36-2.748L363 85.9h-.1c-1.9 0-3.5-1.6-3.5-3.5 0-.718.228-1.393.615-1.955l-10.9-15.245zm24.385 44.4c-.8 0-1.5.7-1.5 1.5s.7 1.5 1.5 1.5 1.5-.7 1.5-1.5-.7-1.5-1.5-1.5zm26.6-21.8l14-33.4c-.8-.6-1.3-1.6-1.3-2.7 0-.2 0-.5.1-.7l-37.1-21.3c-.6.5-1.4.9-2.3.9-.5 0-1-.1-1.4-.3L351 59.6c.5.6.8 1.3.8 2.2 0 .91-.366 1.75-.956 2.38l10.72 14.994c.414-.176.866-.274 1.336-.274 1.9 0 3.5 1.6 3.5 3.5 0 1.2-.6 2.3-1.5 2.8l8.343 22.41c.085-.007.17-.01.257-.01.746 0 1.446.247 2.02.66L396.6 92.5c-.1-.4-.2-.8-.2-1.2 0-1.9 1.6-3.5 3.5-3.5h.2zm-.2 5c-.8 0-1.5-.7-1.5-1.5s.7-1.5 1.5-1.5 1.5.7 1.5 1.5-.7 1.5-1.5 1.5zm-38.5-10.4c0-.8.7-1.5 1.5-1.5s1.5.7 1.5 1.5-.7 1.5-1.5 1.5-1.5-.6-1.5-1.5zm-13-19c-.8 0-1.5-.7-1.5-1.5s.7-1.5 1.5-1.5 1.5.7 1.5 1.5-.7 1.5-1.5 1.5zm67.9-10.2c-.8 0-1.5-.7-1.5-1.5s.7-1.5 1.5-1.5 1.5.7 1.5 1.5-.6 1.5-1.5 1.5zm-42.8-24.6c-.8 0-1.5-.7-1.5-1.5s.7-1.5 1.5-1.5 1.5.7 1.5 1.5-.7 1.5-1.5 1.5z" fill="#49589b"/></svg>