<svg viewBox="0 0 450 150" xmlns="http://www.w3.org/2000/svg" fill-rule="evenodd" clip-rule="evenodd" stroke-linejoin="round" stroke-miterlimit="1.414"><path d="M98.5 66.1h-6.9v-13c0-10.3-8.4-18.7-18.7-18.7-10.3 0-18.7 8.4-18.7 18.7v13h-6.9c-2.8 0-5 2.3-5 5v40.7c0 2.8 2.3 5 5 5h51.1c2.8 0 5-2.3 5-5V71.1c.1-2.8-2.1-5-4.9-5zm-42.2-13c0-9.2 7.5-16.7 16.7-16.7s16.7 7.5 16.7 16.7v13h-5.2V53.9c0-6.3-5.2-11.5-11.5-11.5s-11.5 5.2-11.5 11.5V66h-5.2V53.1zm26.1 13h-19V53.9c0-5.2 4.3-9.5 9.5-9.5s9.5 4.3 9.5 9.5v12.2zm19.1 45.7c0 1.7-1.4 3-3 3H47.4c-1.7 0-3-1.4-3-3V71.1c0-1.7 1.4-3 3-3h51.1c1.7 0 3 1.4 3 3v40.7z" fill="#5eac2f" fill-rule="nonzero"/><path d="M102.5 110.8v2H43.3v-2h59.2zm0-40.7v2H43.3v-2h59.2z" fill="#5eac2f" fill-opacity=".2"/><path d="M72.9 80.2c-4.4 0-7.9 3.5-7.9 7.9s3.5 7.9 7.9 7.9 7.9-3.5 7.9-7.9-3.5-7.9-7.9-7.9zm0 2c3.2 0 5.9 2.6 5.9 5.9 0 3.3-2.6 5.9-5.9 5.9-3.2 0-5.9-2.6-5.9-5.9 0-3.3 2.7-5.9 5.9-5.9zm10.5-24.9H12.2v-2h71.2v2zm52.7 0h-46v-2h46v2z" fill="#5eac2f" fill-opacity=".25"/><path d="M137.6 52.8c-1.9 0-3.5 1.6-3.5 3.5s1.6 3.5 3.5 3.5 3.5-1.6 3.5-3.5c0-2-1.5-3.5-3.5-3.5zm-126.9 0c-1.9 0-3.5 1.6-3.5 3.5s1.6 3.5 3.5 3.5 3.5-1.6 3.5-3.5c0-2-1.6-3.5-3.5-3.5zm126.9 2c.8 0 1.5.7 1.5 1.5s-.7 1.5-1.5 1.5-1.5-.7-1.5-1.5c0-.9.7-1.5 1.5-1.5zm-126.9 0c.8 0 1.5.7 1.5 1.5s-.7 1.5-1.5 1.5-1.5-.7-1.5-1.5c0-.9.7-1.5 1.5-1.5z" fill="#5eac2f" fill-opacity=".5"/><path d="M72.9 82.2c3.2 0 5.9 2.6 5.9 5.9 0 1.9-.9 3.7-2.5 4.8l-.8.6v7.4h-5.1v-7.4l-.8-.6c-1.6-1.1-2.5-2.9-2.5-4.8 0-3.3 2.6-5.9 5.8-5.9m0-2c-4.4 0-7.9 3.5-7.9 7.9 0 2.7 1.3 5 3.4 6.4v8.4h9.1v-8.4c2-1.4 3.4-3.8 3.4-6.4-.1-4.4-3.6-7.9-8-7.9z" fill="#5eac2f" fill-opacity=".75" fill-rule="nonzero"/><path fill="#5eac2f" fill-opacity=".1" d="M220 73.9h11.8v2H220z"/><path d="M227.242 79.396l-6.01-6.01-1.415 1.414 6.01 6.01 1.415-1.414zm3.555-3.482l-5.94-5.94-1.415 1.416 5.94 5.94 1.415-1.416z" fill="#5eac2f" fill-opacity=".1"/><path d="M178.3 96.9l-22-22 22.1-22.1 8.2 8.2-13.9 13.9 13.8 13.8-8.2 8.2zm93.5 0l-8.2-8.2 13.8-13.8-13.8-13.8 8.2-8.2L293.9 75l-22.1 21.9zm-112.7-22l19.2 19.2 5.4-5.4-13.8-13.8 13.8-13.8-5.4-5.4-19.2 19.2zm107.3 13.8l5.4 5.4L291 74.9l-19.2-19.2-5.4 5.4 13.8 13.8-13.8 13.8zm-34.6-14.8h21.1v2h-21.1v-2zm-33.9 0H220v2h-22.1v-2z" fill="#5eac2f" fill-opacity=".25"/><path d="M219.25 74.25L203.5 58.5l-6.2-1.4-6.1-9.2 6.6-6.6 9.3 6 1.3 6.3 15.75 15.75L236.9 56.6c-1.2-3.9-.3-8.4 2.8-11.5 2.2-2.2 5.1-3.3 8-3.3 1.9 0 3.8.4 5.5 1.4l-5.8 5.8.9 3.7 3.5.9 5.8-5.8c2.4 4.3 1.7 9.8-1.9 13.4-2.2 2.2-5.1 3.3-8 3.3-1.2 0-2.4-.2-3.5-.6l-12.75 12.75 3.05 3.05 4.2-4.2 1.2 5.4 18.2 18.2c.9.9.9 2.5-.1 3.4l-5.6 5.6c-.4.5-1.1.7-1.7.7-.6 0-1.2-.2-1.7-.7l-18.2-18.2-5.4-1.2 4.2-4.2-3-3-26.6 26.6c-.6.5-1.3.8-1.9.8-.4 0-.9-.2-1.2-.5l-4.5-4.5c-.8-.7-.7-2.1.3-3.1l26.55-26.55zM247.7 43.8c.6 0 1.2.1 1.9.2l-4.4 4.4 1.5 5.8 5.8 1.5 4.4-4.4c.6 3-.3 6.2-2.5 8.4-1.8 1.8-4.1 2.7-6.6 2.7-1 0-2-.2-2.9-.5l-1.2-.4-45.1 45.1c-.2.2-.3.2-.4.2l-4.3-4.3c0-.1.1-.2.2-.4L239.2 57l-.4-1.2c-1.1-3.3-.2-7 2.3-9.5 1.8-1.6 4.1-2.5 6.6-2.5zm9 57.3l-5.6 5.6c-.1.1-.2.1-.3.1-.1 0-.2 0-.3-.1l-18.7-18.6-2.4-.5 8.1-8.1.5 2.4 18.6 18.6c.2.2.2.5.1.6zm-26.65-23.05L228 80.1l3 3 2.1-2-3.05-3.05zm-7.3-7.3L206.6 54.6l-1.3-6-7.2-4.7-4.3 4.3 4.7 7.1 6 1.4 16.198 16.102 2.052-2.052z" fill="#5eac2f"/><path d="M255.4 71.4c-1.9 0-3.5 1.6-3.5 3.5s1.6 3.5 3.5 3.5 3.5-1.6 3.5-3.5c0-2-1.6-3.5-3.5-3.5zm-60 0c-1.9 0-3.5 1.6-3.5 3.5s1.6 3.5 3.5 3.5 3.5-1.6 3.5-3.5c0-2-1.6-3.5-3.5-3.5zm60 2c.8 0 1.5.7 1.5 1.5s-.7 1.5-1.5 1.5-1.5-.7-1.5-1.5.6-1.5 1.5-1.5zm-60 0c.8 0 1.5.7 1.5 1.5s-.7 1.5-1.5 1.5-1.5-.7-1.5-1.5.6-1.5 1.5-1.5z" fill="#5eac2f" fill-opacity=".5"/><path d="M390.2 63.3l-2 2.9h2v-2.9z" fill="#5eac2f" fill-opacity=".1" fill-rule="nonzero"/><path d="M400.2 121.6h-60.1v-83h9v-2h-11v87h64.1v-10.1h-2v8.1z" fill="#5eac2f" fill-opacity=".25" fill-rule="nonzero"/><path d="M348.1 94.9h18.5v18.7h-18.5V94.9zm23.5 0h18.5v18.7h-18.5V94.9zm28.6-56.3h2v75h-2v-75zm-35.6 73V96.9h-14.5v14.7h14.5zm23.6 0V96.9h-14.6v14.7h14.6zm-21.6-40.4v10.9l-2 2.9V73.2h-14.5v14.7h12.6l-1.3 2h-13.3V71.2h18.5zm7.1 16.7h12.8l1.2 2h-16.1l2.1-2zm-7.1-40.3v4h-2v-2h-14.5v14.6h14.5v-9.8l2 3v8.8h-18.5V47.6h18.5zm5 0h18.6v4h-2v-2h-14.6v2h-2v-4zm-22.5-11h51v2h-51v-2z" fill="#5eac2f" fill-opacity=".1"/><path d="M400.8 26.6l11.3 11.3v75.7h-64v-87h52.7zM400 39V28.6h-49.8v83h60.1V39H400zm-.6 11.6L387 70l13.6 20.5H387l-6.9-10.7-6.9 10.7h-13.5l13.6-20.7-12.4-19.2h13.2l6.1 9.8 6-9.8h13.2zm-2.5 37.9L384.6 70l11.2-17.4h-8.4l-7.1 11.6-7.2-11.6h-8.5l11.1 17.1-12.3 18.8h8.7l8-12.4 8 12.4h8.8zm11.4-51.6l-6.4-6.4v6.4h6.4z" fill="#5eac2f"/></svg>