<svg viewBox="0 0 450 150" xmlns="http://www.w3.org/2000/svg" fill-rule="evenodd" clip-rule="evenodd" stroke-linejoin="round" stroke-miterlimit="1.414"><path fill="#49589b" fill-opacity=".05" d="M68.3 74.5h13.5v2H68.3z"/><path d="M71.4 89c-1.2-4.3-3.2-6.8-6.6-8.4l.9-1.8c3.9 1.9 6.3 4.8 7.6 9.7l-1.9.5zm10.4-14.5h37.7v2H81.8v-2zm-13.6 0v2H30.5v-2h37.7zm16.1-1.6c-4.1-1.6-6.4-4.4-7.6-9.1l1.9-.5c1 4.1 2.9 6.3 6.4 7.7l-.7 1.9z" fill="#49589b" fill-opacity=".1"/><path d="M75.2 123.6h-2v-3.7c0-14.9 0-24.7-1.8-30.9l1.9-.5c1.8 6.5 1.8 16.4 1.8 31.5l.1 3.6zm-41-45.8h-3.7v-2h3.7c17.2 0 25.1 0 31.5 3l-.9 1.8c-6-2.9-13.7-2.8-30.6-2.8zm81.6-2.7c-1.1.1-2.2.1-3.3.1-14.1 0-22.8-.1-28.3-2.3L85 71c5.5 2.1 15 2.1 30.8 2.1h3.7v2h-3.7zM76.7 63.8c-1.3-5.1-1.2-12.4-1-23.4 0-3.9.1-8.3.1-13.1h2c0 4.9-.1 9.3-.1 13.2-.1 10.9-.2 18 1 22.9l-2 .4z" fill="#49589b" fill-opacity=".25"/><path d="M104.7 104.7c-12.3 0-20.3-8.3-27.3-15.6-.8-.8-1.6-1.6-2.3-2.4-.8.8-1.6 1.7-2.4 2.5-7 7.2-14.8 15.5-27.2 15.5-15.7 0-27.1-12.3-27.1-29.2 0-16.8 11.4-28.9 27.1-28.9 12.3 0 20.4 8.6 27.5 16.3.7.8 1.4 1.5 2.1 2.2.9-.9 1.7-1.8 2.6-2.7 7-7.4 14.9-15.8 27-15.8 15.7 0 27.1 12.2 27.1 28.9 0 16.9-11.4 29.2-27.1 29.2zM75 83.9l.7.7c1 1 2 2.1 3.1 3.1 7.1 7.4 14.4 15 25.9 15 14.5 0 25.1-11.4 25.1-27.2 0-15.9-10.3-26.9-25.1-26.9-11.3 0-18.6 7.7-25.6 15.2-1.1 1.2-4 4.2-4 4.2s-2.6-2.7-3.6-3.8c-6.8-7.3-14.6-15.6-26-15.6-14.8 0-25.1 11.1-25.1 26.9 0 15.8 10.6 27.2 25.1 27.2 11.5 0 18.7-7.5 25.8-14.8 1.1-1.1 2.1-2.2 3.2-3.2l.5-.8zm29.7 9.4c-9.2 0-15-7-21.2-14.4-.8-.9-3-3.5-3-3.5l2.4-2.8c7-8.3 12.6-14.8 21.8-14.8 9.6 0 15.9 6.9 15.9 17.6-.1 10.9-6.3 17.9-15.9 17.9zM83.1 75.5c.6.7 1.2 1.5 1.9 2.2 5.9 7 11.5 13.7 19.7 13.7 8.4 0 13.9-6.2 13.9-15.8 0-9.6-5.3-15.6-13.9-15.6-8.3 0-13.6 6.2-20.3 14.1-.5.4-.9.9-1.3 1.4zM45.4 93.3c-9.6 0-15.9-7-15.9-17.8 0-10.7 6.2-17.6 15.9-17.6 9.4 0 15.4 7.1 22.3 15.3l1.9 2.2s-2.2 2.5-3 3.5c-6.2 7.4-12 14.4-21.2 14.4zm0-33.4c-8.4 0-13.9 6.1-13.9 15.6 0 9.6 5.4 15.8 13.9 15.8 8.2 0 13.8-6.6 19.7-13.7.6-.7 1.2-1.5 1.9-2.2l-.8-.9c-6.9-8.2-12.3-14.6-20.8-14.6z" fill="#49589b" fill-rule="nonzero"/><path d="M250.8 93.8c-2.6 0-5.1-.3-7.6-.8l.4-2c2.3.5 4.8.7 7.2.7v2.1zm-24.7-9.6c-2.4-2.2-4.5-4.7-6.2-7.4l1.7-1.1c1.6 2.6 3.6 4.9 5.8 7l-1.3 1.5zm-9.8-15c-1.3-3.9-2-7.9-2-12 0-5.1 1-10.1 3.1-14.8l1.8.8c-1.9 4.4-2.9 9.1-2.9 14 0 3.9.6 7.7 1.9 11.4l-1.9.6z" fill="#49589b" fill-opacity=".05"/><path d="M209.7 92.2l-.6-1.9c9.4-2.8 17.2-9.6 21.4-18.5l1.8.8c-4.4 9.5-12.6 16.6-22.6 19.6zm1.3-31l-.8-1.8c3.2-1.4 6.6-2.4 10.1-2.9l.3 2c-3.3.4-6.6 1.3-9.6 2.7zm22.4-9.2c-.5-3-1.3-6-2.5-8.8l1.8-.8c1.3 3 2.2 6.1 2.7 9.3l-2 .3z" fill="#49589b" fill-opacity=".05"/><path d="M232.3 72.6l-1.8-.8c2.1-4.6 3.2-9.5 3.2-14.6 0-1.7-.1-3.5-.4-5.2l2-.3c.3 1.8.4 3.7.4 5.5.1 5.4-1.1 10.6-3.4 15.4zM199.2 93.8c-20.2 0-36.6-16.4-36.6-36.6 0-20.2 16.4-36.6 36.6-36.6 14.5 0 27.6 8.6 33.5 21.8l-1.8.8c-5.5-12.5-18-20.6-31.7-20.6-19.1 0-34.6 15.5-34.6 34.6s15.5 34.6 34.6 34.6c3.4 0 6.8-.5 10-1.5l.6 1.9c-3.5 1.1-7 1.6-10.6 1.6z" fill="#49589b" fill-opacity=".15" fill-rule="nonzero"/><path d="M250.8 93.8v-2h1.2c18.7-.7 33.4-15.8 33.4-34.6 0-19.1-15.5-34.6-34.6-34.6-13.7 0-26.1 8.1-31.7 20.6l-1.8-.8c5.9-13.3 19-21.8 33.5-21.8 20.2 0 36.6 16.4 36.6 36.6 0 19.8-15.5 35.9-35.3 36.6h-1.3zM219.9 76.8c-1.5-2.4-2.7-4.9-3.7-7.6l1.9-.7c.9 2.5 2 4.9 3.5 7.2l-1.7 1.1zM243.2 93c-6.4-1.3-12.3-4.4-17.1-8.8l1.4-1.5c4.6 4.2 10.1 7.1 16.2 8.3l-.5 2z" fill="#49589b" fill-opacity=".15" fill-rule="nonzero"/><path d="M225.1 129.4c-20.2 0-36.6-16.4-36.6-36.6 0-14.4 8.5-27.5 21.7-33.4l.8 1.8c-12.5 5.6-20.5 18-20.5 31.6 0 19.1 15.5 34.6 34.6 34.6s34.6-15.5 34.6-34.6-15.5-34.6-34.6-34.6c-1.5 0-3 .1-4.5.3l-.3-2c1.6-.2 3.2-.3 4.8-.3 20.2 0 36.6 16.4 36.6 36.6 0 20.2-16.4 36.6-36.6 36.6z" fill="#49589b" fill-opacity=".15" fill-rule="nonzero"/><path d="M250.8 43.8v13h-7.2V51h-29.7l18.2 24-18.2 23.9h29.7v-5.8h7.2v13h-51.4L223.1 75l-23.7-31.2h51.4m2-2h-57.4L220.6 75l-25.2 33.1h57.4v-17h-11.2v5.8H218L234.7 75 218 53h23.6v5.8h11.2v-17zM375.1 30.5c25 1.1 45 21.7 45 47 0 11.9-4.4 23.1-12.4 31.8l-10.1-10.2c5.3-6 8.2-13.6 8.2-21.7 0-17.4-13.6-31.6-30.7-32.6V30.5m-2-2.1v18.3c16.9 0 30.7 13.8 30.7 30.7 0 8.5-3.4 16.1-9 21.7l12.9 12.9c8.9-8.9 14.4-21.1 14.4-34.6 0-27-22-49-49-49z" fill="#49589b" fill-rule="nonzero"/><path d="M388.8 98.6c-4.9 4.9-11.6 7.9-18.9 7.9-14.8 0-26.8-12-26.8-26.8s12-26.8 26.8-26.8v-16c-23.6 0-42.8 19.2-42.8 42.8 0 23.6 19.2 42.8 42.8 42.8 11.8 0 22.5-4.8 30.2-12.5l-11.3-11.4zm-20.9-47.7c-4.1.3-8 1.4-11.5 3.3l-5.8-10.5c5.2-2.8 11.1-4.5 17.3-4.8v12zm-18.2-6.7l5.8 10.5c-7.9 4.5-13.4 12.7-14.3 22.2l-12-1c1.3-13.6 9.2-25.3 20.5-31.7zm-20.6 35.4c0-.9 0-1.8.1-2.7l12 1c0 .6-.1 1.2-.1 1.8 0 11 6.2 20.6 15.4 25.5l-5.4 10.7c-13.1-6.9-22-20.6-22-36.3zm22.9 36.7l5.4-10.7c3.8 1.8 8 2.9 12.5 2.9 7 0 13.6-2.5 18.9-7.1l8.5 8.5c-7.5 6.8-17.2 10.6-27.4 10.6-6.4-.1-12.5-1.6-17.9-4.2z" fill="#49589b" fill-opacity=".25" fill-rule="nonzero"/></svg>