<svg viewBox="0 0 450 150" xmlns="http://www.w3.org/2000/svg" fill-rule="evenodd" clip-rule="evenodd" stroke-linejoin="round" stroke-miterlimit="1.414"><path d="M51.9 114.2l-2-.3v-.1c-.6.3-1.4.4-2.4.4-1.5 0-2.6-.4-3.2-1.2-1-1.3-.7-3-.5-4.6.4-2.4 1-5.7 5.3-5.7 1.5 0 2.5.4 3.2 1.2 1.1 1.3.7 3.2.4 4.8l-.8 5.5zm-22-1.5c-.7 0-1.3-.2-1.8-.7-1-.9-.8-2.5-.7-2.6l2 .3c0 .2 0 .7.1.8.1.1.4.2 1 0 2.7-.6 6.2-21 8.5-34.5 4.1-23.9 6.4-35.2 10.1-36.1 1.2-.3 2.1-.1 2.8.5 1 .9.8 2.5.7 2.6l-2-.3c0-.3 0-.7-.1-.8-.1-.1-.4-.2-1 0-2.7.6-6.2 21-8.5 34.5-4.1 23.9-6.4 35.2-10.1 36.1-.3.1-.7.2-1 .2zm19.4-8c-2.6 0-2.9 1.4-3.4 4-.2 1.1-.4 2.4 0 3 .3.4 1.1.5 1.7.5 2.5 0 2.9-1.3 3.3-3.7.2-1.3.5-2.7 0-3.2-.3-.5-1.1-.6-1.6-.6zm9.1-52.1c-1.5 0-2.5-.4-3.2-1.2-1.1-1.3-.7-3.2-.4-4.8l1.9-10.9 2 .3-1 5.6c.6-.3 1.4-.4 2.4-.4 1.5 0 2.6.4 3.2 1.2 1 1.3.7 3 .5 4.6-.4 2.3-1 5.6-5.4 5.6zm-1.6-5.7c-.2 1.3-.5 2.7 0 3.3.3.4 1.1.5 1.7.5 2.6 0 2.9-1.4 3.4-4 .2-1.1.4-2.4 0-3-.3-.4-1.1-.5-1.7-.5-2.6 0-3 1.3-3.4 3.7z" fill="#c84040" fill-opacity=".5"/><path d="M83.6 99.5c-.3-.2-7-4.9-3.9-22.4C82.7 59.8 91 54 91.3 53.8l1.1 1.7c-.1.1-7.9 5.6-10.8 22-2.8 16 3 20.4 3 20.4l-1 1.6zm22.8 0l-1.1-1.7c.1-.1 7.9-5.6 10.8-22 2.9-16.2-3-20.4-3-20.4l1.1-1.7c.3.2 7 4.9 3.9 22.4-3.2 17.4-11.4 23.2-11.7 23.4zM76.9 67.1l-2-.3-.3 1.6c-.9-1-2.4-1.5-4.5-1.5-6.4 0-7.2 4.7-7.9 8.5-.4 2.3-.9 5 .6 6.8.9 1.1 2.5 1.7 4.7 1.7 2 0 3.5-.5 4.6-1.2l-.7 4.3c0 .2-.7 4.7-5.5 4.7-1.4 0-2.4-.4-3-1.1-1.1-1.3-.7-3.3-.7-3.4l-2-.4c0 .1-.6 3 1.1 5 1 1.2 2.5 1.8 4.5 1.8 5.2 0 7.2-4.2 7.5-6.3l3.6-20.2zm30 1.8v-2c-3.6 0-5.7 1.5-7 3.4-.2-.5-.5-1-.8-1.4-1.1-1.3-2.8-1.9-5.2-1.9v2c1.7 0 3 .4 3.7 1.2.8.9 1 2.5.6 4.9-.8 4.8-2.9 6.9-6.9 6.9v2c3.6 0 5.7-1.5 7-3.4.2.5.5 1 .8 1.4 1.1 1.3 2.8 1.9 5.2 1.9v-2c-1.7 0-3-.4-3.7-1.2-.8-.9-1-2.5-.6-4.9.9-4.8 3-6.9 6.9-6.9zm-39.3 13c-1.5 0-2.6-.3-3.1-1-.9-1.1-.5-3.1-.2-5.2.7-4.2 1.4-6.9 5.9-6.9 1.5 0 2.6.3 3.1.9.9 1.1.5 3.4.1 5.6-.6 3.6-1.1 6.6-5.8 6.6z" fill="#c84040"/><path d="M238.3 91.9h2v25.2h-2V91.9zM211.7 63v25.4h25.6v2h-25.6V117h-2V90.4h-13.1v-2h13.1V63h2zm29.7 25.4H267v2h-25.6v-2zM267 59.7v2h-13.2v-2H267z" fill="#c84040" fill-opacity=".05"/><path d="M269 34.3V119h-84.9v-2H267V34.3h2zm-3.5-3.2v2h-25.2v26.6h13.5v2h-13.5v25.8h-2V61.7h-25.5v-2h25.5V33.1h-26.6v25.5h-2V33.1H183v26.6h25.6v2H183v26.7h13.6v2H183v25.5h-2V31.1h84.5z" fill="#c84040" fill-opacity=".25"/><path d="M268 28.6c-1.9 0-3.5 1.6-3.5 3.5 0 1 .4 1.9 1.1 2.6l-25.7 51.7c-.2 0-.4-.1-.6-.1-.6 0-1.1.2-1.6.4l-23.9-24.5c.2-.5.4-1 .4-1.5 0-1.9-1.6-3.5-3.5-3.5s-3.5 1.6-3.5 3.5c0 1 .5 1.9 1.2 2.6l-25.7 51.3c-.2 0-.4-.1-.6-.1-1.9 0-3.5 1.6-3.5 3.5s1.6 3.5 3.5 3.5 3.5-1.6 3.5-3.5c0-1-.4-1.9-1.1-2.5l25.7-51.3c.2 0 .3.1.5.1.7 0 1.3-.2 1.8-.5l23.8 24.4c-.3.5-.5 1.1-.5 1.7 0 1.9 1.6 3.5 3.5 3.5s3.5-1.6 3.5-3.5c0-1-.4-1.9-1.1-2.5l25.7-51.7c.2 0 .4.1.6.1 1.9 0 3.5-1.6 3.5-3.5s-1.6-3.7-3.5-3.7zm-86 90.9c-.8 0-1.5-.7-1.5-1.5s.7-1.5 1.5-1.5 1.5.7 1.5 1.5-.7 1.5-1.5 1.5zm28.7-57.3c-.8 0-1.5-.7-1.5-1.5s.7-1.5 1.5-1.5 1.5.7 1.5 1.5-.7 1.5-1.5 1.5zm28.6 29.1c-.8 0-1.5-.7-1.5-1.5s.7-1.5 1.5-1.5 1.5.7 1.5 1.5-.6 1.5-1.5 1.5zM268 33.5c-.8 0-1.5-.7-1.5-1.5s.7-1.5 1.5-1.5 1.5.7 1.5 1.5-.6 1.5-1.5 1.5z" fill="#c84040" fill-rule="nonzero"/><path d="M347.4 105.5H366l-2 2h-14.6l-2-2zm-3.3-24.8l-2-2v21.5l2 2V80.7zm60.1-35.2v22l2-2v-22l-2 2z" fill="#d96b28" fill-opacity=".1"/><path d="M349.4 107.5h-7.3v-7.3l2 2v3.3h3.3l2 2zm54.8-2v-38l2-2v42H364l2-2h38.2zm-62.1-62h64.1l-2 2h-60.1v35.2l-2-2V43.5z" fill="#d96b28" fill-opacity=".25"/><path d="M414.2 37.5l9.3 9.3-66.7 66.7-32-31.9 9.3-9.3 22.6 22.6 57.5-57.4m0-2.8l-57.4 57.4-22.7-22.6L322 81.6l34.8 34.8 69.5-69.5-12.1-12.2z" fill="#d96b28" fill-rule="nonzero"/></svg>